<svg xmlns="http://www.w3.org/2000/svg" id="Diagrams" width="195mm" height="125mm" viewBox="0 0 552.76 354.33"><defs><style>.cls-1{fill:#00c1de;}.cls-2,.cls-5{font-size:18px;}.cls-2,.cls-5,.cls-8{fill:#333e48;}.cls-2{font-family:Lato-Medium, Lato;font-weight:500;}.cls-3{letter-spacing:0em;}.cls-4{letter-spacing:-0.01em;}.cls-5{font-family:CourierNewPSMT, Courier New;}.cls-6,.cls-7{fill:none;stroke:#333e48;stroke-miterlimit:10;}.cls-6{stroke-dasharray:5 3;}</style></defs><rect class="cls-1" x="42.52" y="141.73" width="269.29" height="85.04"/><text class="cls-2" transform="translate(375.59 162.99)"><tspan class="cls-3">C</tspan><tspan x="11.95" y="0">ritical </tspan><tspan class="cls-4" x="60.6" y="0">c</tspan><tspan x="69.05" y="0">ode section</tspan></text><text class="cls-5" transform="translate(154.56 130.89)">LDAR</text><text class="cls-5" transform="translate(159.96 56.48)">LDR</text><text class="cls-5" transform="translate(159.96 81.28)">STR</text><text class="cls-5" transform="translate(160.96 177.16)">LDR</text><text class="cls-5" transform="translate(160.96 201.97)">STR</text><rect class="cls-6" x="127.56" y="28.35" width="99.21" height="70.63"/><rect class="cls-6" x="127.56" y="155.91" width="99.21" height="56.69"/><polyline class="cls-7" points="226.77 63.78 283.46 63.78 283.46 235.2"/><polygon class="cls-8" points="279.48 234.04 283.46 240.94 287.45 234.04 279.48 234.04"/><polyline class="cls-7" points="127.56 170.08 99.21 170.08 99.21 133.3"/><polygon class="cls-8" points="103.2 134.47 99.21 127.56 95.22 134.47 103.2 134.47"/><polyline class="cls-7" points="127.56 297.85 70.87 297.85 70.87 133.3"/><polygon class="cls-8" points="74.86 134.47 70.87 127.56 66.88 134.47 74.86 134.47"/><line class="cls-6" x1="324.99" y1="127.35" x2="211.6" y2="127.35"/><text class="cls-5" transform="translate(155.56 244.48)">STLR</text><line class="cls-6" x1="325.98" y1="240.94" x2="212.6" y2="240.94"/><text class="cls-5" transform="translate(160.96 290.54)">LDR</text><text class="cls-5" transform="translate(160.96 315.35)">STR</text><rect class="cls-6" x="127.56" y="269.29" width="99.21" height="56.69"/><polyline class="cls-7" points="127.56 198.43 99.21 198.43 99.21 235.2"/><polygon class="cls-8" points="95.22 234.04 99.21 240.94 103.2 234.04 95.22 234.04"/><line class="cls-7" x1="316.95" y1="183.46" x2="368.5" y2="157.68"/><polygon class="cls-8" points="319.77 186.5 311.81 186.02 316.21 179.37 319.77 186.5"/><line class="cls-6" x1="141.73" y1="127.56" x2="28.35" y2="127.56"/><line class="cls-6" x1="142.73" y1="241.15" x2="29.34" y2="241.15"/></svg>