<svg xmlns="http://www.w3.org/2000/svg" id="Diagrams" width="210mm" height="90mm" viewBox="0 0 595.28 255.12"><defs><style>.cls-1,.cls-2{fill:#333e48;}.cls-2{font-size:18px;font-family:CourierNewPSMT, Courier New;}.cls-3,.cls-4{fill:none;stroke:#333e48;stroke-miterlimit:10;}.cls-3{stroke-dasharray:5 3;}</style></defs><path class="cls-1" d="M418,92.13h-1.48a.67.67,0,0,1-.41-.13.7.7,0,0,1-.24-.32l-1.14-3H409l-1.14,3a.81.81,0,0,1-.23.31.68.68,0,0,1-.42.14h-1.47l5.14-12.93h1.94Zm-3.79-4.82-1.92-5a11.35,11.35,0,0,1-.41-1.3q-.1.39-.21.72a6,6,0,0,1-.2.6l-1.91,5Z"/><path class="cls-1" d="M425.37,84.69a.78.78,0,0,1-.15.16.36.36,0,0,1-.22.06.58.58,0,0,1-.31-.11,3,3,0,0,0-.39-.25,3.64,3.64,0,0,0-.58-.24,2.49,2.49,0,0,0-.83-.11,2.73,2.73,0,0,0-1.14.23,2.26,2.26,0,0,0-.83.67,3.1,3.1,0,0,0-.5,1.05,5.4,5.4,0,0,0-.17,1.39,5.18,5.18,0,0,0,.18,1.43,2.87,2.87,0,0,0,.52,1,2,2,0,0,0,.81.65,2.42,2.42,0,0,0,1.06.22,2.46,2.46,0,0,0,.93-.14,3,3,0,0,0,.62-.3l.4-.3a.53.53,0,0,1,.33-.14.41.41,0,0,1,.34.16l.5.65a3.17,3.17,0,0,1-.71.66,4.11,4.11,0,0,1-.83.44,4.62,4.62,0,0,1-.92.25,6.37,6.37,0,0,1-1,.08,4.07,4.07,0,0,1-1.6-.31,3.64,3.64,0,0,1-1.28-.92,4.47,4.47,0,0,1-.86-1.48,5.91,5.91,0,0,1-.32-2,6,6,0,0,1,.29-1.88,4.25,4.25,0,0,1,.83-1.49,4,4,0,0,1,1.37-1,4.69,4.69,0,0,1,1.85-.35,4.42,4.42,0,0,1,1.73.31,4.25,4.25,0,0,1,1.33.89Z"/><path class="cls-1" d="M433.82,84.69a.78.78,0,0,1-.15.16.36.36,0,0,1-.22.06.53.53,0,0,1-.3-.11,4.1,4.1,0,0,0-.4-.25,3.64,3.64,0,0,0-.58-.24,2.49,2.49,0,0,0-.83-.11,2.73,2.73,0,0,0-1.14.23,2.26,2.26,0,0,0-.83.67,3.1,3.1,0,0,0-.5,1.05,5.4,5.4,0,0,0-.17,1.39,5.18,5.18,0,0,0,.18,1.43,2.87,2.87,0,0,0,.52,1,2,2,0,0,0,.81.65,2.42,2.42,0,0,0,1.06.22,2.46,2.46,0,0,0,.93-.14,3,3,0,0,0,.62-.3c.16-.11.29-.21.4-.3a.53.53,0,0,1,.33-.14.41.41,0,0,1,.34.16l.5.65a3.35,3.35,0,0,1-.7.66,4.48,4.48,0,0,1-.84.44,4.62,4.62,0,0,1-.92.25,6.37,6.37,0,0,1-1,.08,4,4,0,0,1-1.59-.31,3.59,3.59,0,0,1-1.29-.92,4.47,4.47,0,0,1-.86-1.48,5.91,5.91,0,0,1-.32-2,6,6,0,0,1,.29-1.88,4.27,4.27,0,0,1,.84-1.49,3.9,3.9,0,0,1,1.36-1,4.69,4.69,0,0,1,1.85-.35,4.42,4.42,0,0,1,1.73.31,4.25,4.25,0,0,1,1.33.89Z"/><path class="cls-1" d="M443.37,90.82a3.29,3.29,0,0,1-.74.65,4.73,4.73,0,0,1-.9.45,5.52,5.52,0,0,1-1,.25,6.85,6.85,0,0,1-1,.08,4.54,4.54,0,0,1-1.75-.32,3.9,3.9,0,0,1-1.4-.93,4.4,4.4,0,0,1-.92-1.53,6.2,6.2,0,0,1-.32-2.11,5.14,5.14,0,0,1,.29-1.77,4.32,4.32,0,0,1,.85-1.44,3.81,3.81,0,0,1,1.36-1,4.32,4.32,0,0,1,1.8-.35,4.26,4.26,0,0,1,1.54.27,3.5,3.5,0,0,1,1.22.8,3.83,3.83,0,0,1,.81,1.29,5,5,0,0,1,.29,1.74,1.16,1.16,0,0,1-.09.55.37.37,0,0,1-.33.14h-6a4.89,4.89,0,0,0,.24,1.42,2.73,2.73,0,0,0,.57,1,2.3,2.3,0,0,0,.87.6,3.06,3.06,0,0,0,1.12.2,3.33,3.33,0,0,0,1-.14,5.45,5.45,0,0,0,.74-.29c.21-.11.38-.2.52-.29a.74.74,0,0,1,.38-.14.41.41,0,0,1,.33.16Zm-1.45-4.28a3,3,0,0,0-.14-1,2.3,2.3,0,0,0-.44-.76,2,2,0,0,0-.7-.51,2.42,2.42,0,0,0-1-.18,2.37,2.37,0,0,0-1.74.64,3.1,3.1,0,0,0-.8,1.78Z"/><path class="cls-1" d="M450.79,84.56a.59.59,0,0,1-.15.16.36.36,0,0,1-.21,0,.62.62,0,0,1-.32-.1l-.42-.21a4.73,4.73,0,0,0-.58-.22,3.12,3.12,0,0,0-.8-.1,2.07,2.07,0,0,0-.68.1,1.54,1.54,0,0,0-.53.26,1.11,1.11,0,0,0-.33.39,1.07,1.07,0,0,0-.12.49.84.84,0,0,0,.2.57,1.82,1.82,0,0,0,.53.39,5.35,5.35,0,0,0,.75.29l.86.28a8.71,8.71,0,0,1,.85.32,3.5,3.5,0,0,1,.75.46,2.41,2.41,0,0,1,.53.66,2.12,2.12,0,0,1,.2,1,3,3,0,0,1-.23,1.18,2.53,2.53,0,0,1-.67.94,3,3,0,0,1-1.11.62,4.59,4.59,0,0,1-1.5.23,4.78,4.78,0,0,1-1.75-.32,4.3,4.3,0,0,1-1.34-.8l.42-.67a.7.7,0,0,1,.18-.2.6.6,0,0,1,.29-.06.64.64,0,0,1,.35.12,4.62,4.62,0,0,0,.43.28,3.18,3.18,0,0,0,.61.27,2.88,2.88,0,0,0,.9.12,2.57,2.57,0,0,0,.78-.11,1.67,1.67,0,0,0,.56-.31,1.54,1.54,0,0,0,.33-.44,1.4,1.4,0,0,0,.1-.54.85.85,0,0,0-.2-.59,1.6,1.6,0,0,0-.53-.41,3.67,3.67,0,0,0-.75-.3l-.87-.27c-.29-.1-.58-.21-.86-.33a3.2,3.2,0,0,1-.75-.48,2.16,2.16,0,0,1-.53-.7,2.22,2.22,0,0,1-.2-1,2.43,2.43,0,0,1,.22-1,2.39,2.39,0,0,1,.64-.85,3,3,0,0,1,1-.59,4.09,4.09,0,0,1,1.41-.22,4.31,4.31,0,0,1,1.64.29,3.7,3.7,0,0,1,1.26.79Z"/><path class="cls-1" d="M458.61,84.56a.59.59,0,0,1-.15.16.36.36,0,0,1-.21,0,.62.62,0,0,1-.32-.1l-.42-.21a4.73,4.73,0,0,0-.58-.22,3,3,0,0,0-.79-.1,2.09,2.09,0,0,0-.69.1,1.54,1.54,0,0,0-.53.26,1.23,1.23,0,0,0-.33.39,1.07,1.07,0,0,0-.12.49.84.84,0,0,0,.2.57,2,2,0,0,0,.53.39,5.35,5.35,0,0,0,.75.29l.86.28a8.71,8.71,0,0,1,.85.32,3.5,3.5,0,0,1,.75.46,2.41,2.41,0,0,1,.53.66,2.12,2.12,0,0,1,.2,1,2.86,2.86,0,0,1-.23,1.18,2.53,2.53,0,0,1-.67.94,3,3,0,0,1-1.11.62,4.55,4.55,0,0,1-1.5.23,4.68,4.68,0,0,1-1.74-.32,4.24,4.24,0,0,1-1.35-.8l.42-.67a.7.7,0,0,1,.18-.2.6.6,0,0,1,.29-.06.64.64,0,0,1,.35.12,4.62,4.62,0,0,0,.43.28,3.18,3.18,0,0,0,.61.27,2.88,2.88,0,0,0,.9.12,2.57,2.57,0,0,0,.78-.11,1.67,1.67,0,0,0,.56-.31,1.54,1.54,0,0,0,.33-.44,1.4,1.4,0,0,0,.1-.54.85.85,0,0,0-.2-.59,1.6,1.6,0,0,0-.53-.41,3.67,3.67,0,0,0-.75-.3l-.86-.27q-.45-.15-.87-.33a3.2,3.2,0,0,1-.75-.48,2.16,2.16,0,0,1-.53-.7,2.22,2.22,0,0,1-.2-1,2.43,2.43,0,0,1,.22-1,2.39,2.39,0,0,1,.64-.85,3.13,3.13,0,0,1,1-.59,4.09,4.09,0,0,1,1.41-.22,4.28,4.28,0,0,1,1.64.29,3.7,3.7,0,0,1,1.26.79Z"/><path class="cls-1" d="M468.55,90.82a3.58,3.58,0,0,1-.75.65,4.21,4.21,0,0,1-.9.45,5.52,5.52,0,0,1-1,.25,6.85,6.85,0,0,1-1,.08,4.58,4.58,0,0,1-1.75-.32,3.9,3.9,0,0,1-1.4-.93,4.38,4.38,0,0,1-.91-1.53,6.19,6.19,0,0,1-.33-2.11,5.14,5.14,0,0,1,.3-1.77,4.16,4.16,0,0,1,.85-1.44,3.78,3.78,0,0,1,1.35-1,4.32,4.32,0,0,1,1.8-.35,4.26,4.26,0,0,1,1.54.27,3.5,3.5,0,0,1,1.22.8,3.68,3.68,0,0,1,.81,1.29,5,5,0,0,1,.29,1.74,1.16,1.16,0,0,1-.09.55.37.37,0,0,1-.33.14h-6a4.89,4.89,0,0,0,.24,1.42,3,3,0,0,0,.57,1,2.3,2.3,0,0,0,.87.6,3.06,3.06,0,0,0,1.12.2,3.44,3.44,0,0,0,1-.14,5.28,5.28,0,0,0,.73-.29l.53-.29a.71.71,0,0,1,.37-.14.41.41,0,0,1,.33.16Zm-1.45-4.28a3,3,0,0,0-.15-1,2.3,2.3,0,0,0-.44-.76,1.89,1.89,0,0,0-.7-.51,2.37,2.37,0,0,0-.95-.18,2.4,2.4,0,0,0-1.75.64,3.1,3.1,0,0,0-.8,1.78Z"/><path class="cls-1" d="M476,84.56a.59.59,0,0,1-.15.16.33.33,0,0,1-.21,0,.65.65,0,0,1-.32-.1l-.42-.21a4.73,4.73,0,0,0-.58-.22,3,3,0,0,0-.79-.1,2.17,2.17,0,0,0-.69.1,1.64,1.64,0,0,0-.53.26,1.23,1.23,0,0,0-.33.39,1.07,1.07,0,0,0-.12.49.84.84,0,0,0,.2.57,1.88,1.88,0,0,0,.54.39,4.76,4.76,0,0,0,.74.29l.86.28a8.71,8.71,0,0,1,.85.32,3.5,3.5,0,0,1,.75.46,2.24,2.24,0,0,1,.53.66,2,2,0,0,1,.2,1,2.86,2.86,0,0,1-.23,1.18,2.42,2.42,0,0,1-.67.94,3,3,0,0,1-1.1.62,5,5,0,0,1-3.25-.09,4.19,4.19,0,0,1-1.34-.8l.41-.67a.7.7,0,0,1,.18-.2.6.6,0,0,1,.29-.06.64.64,0,0,1,.35.12,4.62,4.62,0,0,0,.43.28,3.18,3.18,0,0,0,.61.27,2.88,2.88,0,0,0,.9.12,2.69,2.69,0,0,0,.79-.11,1.72,1.72,0,0,0,.55-.31,1.24,1.24,0,0,0,.33-.44,1.41,1.41,0,0,0,.11-.54.85.85,0,0,0-.21-.59,1.6,1.6,0,0,0-.53-.41,3.67,3.67,0,0,0-.75-.3L472.5,88c-.3-.1-.58-.21-.87-.33a3.2,3.2,0,0,1-.75-.48,2.31,2.31,0,0,1-.53-.7,2.36,2.36,0,0,1-.2-1,2.43,2.43,0,0,1,.22-1,2.51,2.51,0,0,1,.64-.85,3.13,3.13,0,0,1,1-.59,4.09,4.09,0,0,1,1.41-.22,4.28,4.28,0,0,1,1.64.29,3.7,3.7,0,0,1,1.26.79Z"/><path class="cls-1" d="M489.34,84.69a.78.78,0,0,1-.15.16.36.36,0,0,1-.22.06.53.53,0,0,1-.3-.11,4.1,4.1,0,0,0-.4-.25,3.64,3.64,0,0,0-.58-.24,2.49,2.49,0,0,0-.83-.11,2.73,2.73,0,0,0-1.14.23,2.26,2.26,0,0,0-.83.67,3.1,3.1,0,0,0-.5,1.05,5.4,5.4,0,0,0-.17,1.39A5.18,5.18,0,0,0,484.4,89a2.87,2.87,0,0,0,.52,1,2,2,0,0,0,.81.65,2.42,2.42,0,0,0,1.06.22,2.46,2.46,0,0,0,.93-.14,3,3,0,0,0,.62-.3c.16-.11.29-.21.4-.3a.53.53,0,0,1,.33-.14.41.41,0,0,1,.34.16l.5.65a3.35,3.35,0,0,1-.7.66,4.48,4.48,0,0,1-.84.44,4.62,4.62,0,0,1-.92.25,6.37,6.37,0,0,1-1,.08,4,4,0,0,1-1.59-.31,3.59,3.59,0,0,1-1.29-.92,4.47,4.47,0,0,1-.86-1.48,5.91,5.91,0,0,1-.32-2,6,6,0,0,1,.29-1.88,4.27,4.27,0,0,1,.84-1.49,3.9,3.9,0,0,1,1.36-1,4.69,4.69,0,0,1,1.85-.35,4.42,4.42,0,0,1,1.73.31,4.25,4.25,0,0,1,1.33.89Z"/><path class="cls-1" d="M491.32,84.26a5,5,0,0,1,3.62-1.45,3.55,3.55,0,0,1,1.39.26,3,3,0,0,1,1,.71,3.12,3.12,0,0,1,.62,1.1,4.53,4.53,0,0,1,.21,1.41v5.84h-.78A.74.74,0,0,1,497,92a.56.56,0,0,1-.21-.32l-.19-.8a8,8,0,0,1-.69.57,3.75,3.75,0,0,1-.72.42,3.42,3.42,0,0,1-.8.27,4.45,4.45,0,0,1-.93.09,3.4,3.4,0,0,1-1-.15,2.43,2.43,0,0,1-.82-.45,2.17,2.17,0,0,1-.55-.77,2.52,2.52,0,0,1-.2-1.07,2,2,0,0,1,.29-1,2.57,2.57,0,0,1,.95-.89,6,6,0,0,1,1.73-.65,12.51,12.51,0,0,1,2.62-.29v-.67a2.27,2.27,0,0,0-.44-1.54,1.58,1.58,0,0,0-1.29-.52,2.71,2.71,0,0,0-1,.15,3.31,3.31,0,0,0-.68.32l-.49.32a.82.82,0,0,1-.44.14.48.48,0,0,1-.31-.1.91.91,0,0,1-.21-.23Zm5.14,3.81a13.81,13.81,0,0,0-1.81.16,5.31,5.31,0,0,0-1.22.35,1.52,1.52,0,0,0-.67.51,1.07,1.07,0,0,0-.21.65,1.51,1.51,0,0,0,.11.59,1.27,1.27,0,0,0,.31.41,1.18,1.18,0,0,0,.45.22A2.07,2.07,0,0,0,494,91a3.36,3.36,0,0,0,.74-.08,4,4,0,0,0,.64-.23,3.19,3.19,0,0,0,.56-.37,4.81,4.81,0,0,0,.53-.49Z"/><path class="cls-1" d="M502.19,84.25a6.76,6.76,0,0,1,.62-.58,3.52,3.52,0,0,1,.69-.44,3.81,3.81,0,0,1,.78-.29,3.71,3.71,0,0,1,.9-.1,3.21,3.21,0,0,1,1.32.25,2.62,2.62,0,0,1,1,.71,3.09,3.09,0,0,1,.59,1.09,4.86,4.86,0,0,1,.19,1.41v5.83h-1.76V86.3a2.32,2.32,0,0,0-.45-1.52,1.67,1.67,0,0,0-1.38-.55,2.62,2.62,0,0,0-1.26.32,4.22,4.22,0,0,0-1.09.87v6.71h-1.76V83h1a.43.43,0,0,1,.46.35Z"/><path class="cls-1" d="M521.56,84.69a.78.78,0,0,1-.15.16.36.36,0,0,1-.22.06.58.58,0,0,1-.31-.11,3,3,0,0,0-.39-.25,3.64,3.64,0,0,0-.58-.24,2.49,2.49,0,0,0-.83-.11,2.73,2.73,0,0,0-1.14.23,2.26,2.26,0,0,0-.83.67,3.1,3.1,0,0,0-.5,1.05,5.4,5.4,0,0,0-.17,1.39,5.18,5.18,0,0,0,.18,1.43,2.87,2.87,0,0,0,.52,1,2,2,0,0,0,.81.65,2.42,2.42,0,0,0,1.06.22,2.46,2.46,0,0,0,.93-.14,3,3,0,0,0,.62-.3c.16-.11.29-.21.4-.3a.53.53,0,0,1,.33-.14.41.41,0,0,1,.34.16l.5.65a3.17,3.17,0,0,1-.71.66,4.11,4.11,0,0,1-.83.44,4.62,4.62,0,0,1-.92.25,6.37,6.37,0,0,1-1,.08,4,4,0,0,1-1.59-.31,3.59,3.59,0,0,1-1.29-.92,4.47,4.47,0,0,1-.86-1.48,5.91,5.91,0,0,1-.32-2,6,6,0,0,1,.29-1.88,4.42,4.42,0,0,1,.83-1.49,4,4,0,0,1,1.37-1,4.69,4.69,0,0,1,1.85-.35,4.42,4.42,0,0,1,1.73.31A4.25,4.25,0,0,1,522,84Z"/><path class="cls-1" d="M525.42,84.74a4.31,4.31,0,0,1,1.07-1.42,2.26,2.26,0,0,1,1.49-.51,2,2,0,0,1,.56.07,1.42,1.42,0,0,1,.47.2l-.12,1.32a.28.28,0,0,1-.3.25,2.63,2.63,0,0,1-.38-.05,2.26,2.26,0,0,0-.54,0,2.09,2.09,0,0,0-.74.12,1.66,1.66,0,0,0-.58.36,2.45,2.45,0,0,0-.46.58,8.38,8.38,0,0,0-.37.79v5.73h-1.75V83h1a.55.55,0,0,1,.39.11.64.64,0,0,1,.15.36Z"/><path class="cls-1" d="M533.92,82.84a4.8,4.8,0,0,1,1.82.33,3.76,3.76,0,0,1,1.39.94A4.33,4.33,0,0,1,538,85.6a5.9,5.9,0,0,1,.3,1.94,6,6,0,0,1-.3,2,4.28,4.28,0,0,1-.88,1.48,3.76,3.76,0,0,1-1.39.94,5.21,5.21,0,0,1-3.65,0A3.85,3.85,0,0,1,530.7,91a4.15,4.15,0,0,1-.89-1.48,6,6,0,0,1-.31-2,5.89,5.89,0,0,1,.31-1.94,4.2,4.2,0,0,1,.89-1.49,3.85,3.85,0,0,1,1.39-.94A4.81,4.81,0,0,1,533.92,82.84Zm0,8a2.26,2.26,0,0,0,1.94-.87,4.14,4.14,0,0,0,.63-2.46,4.18,4.18,0,0,0-.63-2.46,2.6,2.6,0,0,0-3.9,0,4.11,4.11,0,0,0-.64,2.46A4.07,4.07,0,0,0,532,90,2.28,2.28,0,0,0,533.92,90.88Z"/><path class="cls-1" d="M545.66,84.56a.49.49,0,0,1-.16.16.31.31,0,0,1-.2,0,.6.6,0,0,1-.32-.1l-.43-.21a3.74,3.74,0,0,0-.58-.22,3,3,0,0,0-.79-.1,2.17,2.17,0,0,0-.69.1,1.59,1.59,0,0,0-.52.26,1.14,1.14,0,0,0-.34.39,1.21,1.21,0,0,0-.11.49.8.8,0,0,0,.2.57,1.7,1.7,0,0,0,.53.39,5.35,5.35,0,0,0,.75.29l.85.28a8.89,8.89,0,0,1,.86.32,3.2,3.2,0,0,1,.74.46,2.44,2.44,0,0,1,.54.66,2.12,2.12,0,0,1,.2,1,3,3,0,0,1-.23,1.18,2.56,2.56,0,0,1-.68.94,2.87,2.87,0,0,1-1.1.62,4.63,4.63,0,0,1-1.5.23,4.78,4.78,0,0,1-1.75-.32,4.3,4.3,0,0,1-1.34-.8l.41-.67a.7.7,0,0,1,.18-.2.62.62,0,0,1,.29-.06.62.62,0,0,1,.35.12,4.91,4.91,0,0,0,.44.28,2.92,2.92,0,0,0,.61.27,2.88,2.88,0,0,0,.9.12,2.57,2.57,0,0,0,.78-.11,1.61,1.61,0,0,0,.55-.31,1.24,1.24,0,0,0,.33-.44,1.41,1.41,0,0,0,.11-.54.9.9,0,0,0-.2-.59,1.71,1.71,0,0,0-.53-.41,3.67,3.67,0,0,0-.75-.3c-.29-.08-.57-.17-.87-.27s-.58-.21-.86-.33a3.2,3.2,0,0,1-.75-.48,2.16,2.16,0,0,1-.53-.7,2.22,2.22,0,0,1-.21-1,2.6,2.6,0,0,1,.22-1,2.51,2.51,0,0,1,.64-.85,3.18,3.18,0,0,1,1-.59,4.09,4.09,0,0,1,1.41-.22,4.31,4.31,0,0,1,1.64.29,3.56,3.56,0,0,1,1.25.79Z"/><path class="cls-1" d="M553.48,84.56a.49.49,0,0,1-.16.16.31.31,0,0,1-.2,0,.6.6,0,0,1-.32-.1l-.43-.21a3.74,3.74,0,0,0-.58-.22,3,3,0,0,0-.79-.1,2.17,2.17,0,0,0-.69.1,1.59,1.59,0,0,0-.52.26,1.14,1.14,0,0,0-.34.39,1.21,1.21,0,0,0-.11.49.8.8,0,0,0,.2.57,1.7,1.7,0,0,0,.53.39,5.35,5.35,0,0,0,.75.29l.85.28a8.89,8.89,0,0,1,.86.32,3.2,3.2,0,0,1,.74.46,2.44,2.44,0,0,1,.54.66,2.12,2.12,0,0,1,.2,1,3,3,0,0,1-.23,1.18,2.45,2.45,0,0,1-.68.94A2.87,2.87,0,0,1,552,92a4.63,4.63,0,0,1-1.5.23,4.78,4.78,0,0,1-1.75-.32,4.3,4.3,0,0,1-1.34-.8l.42-.67a.49.49,0,0,1,.18-.2.55.55,0,0,1,.28-.06.62.62,0,0,1,.35.12,4.91,4.91,0,0,0,.44.28,2.92,2.92,0,0,0,.61.27,2.88,2.88,0,0,0,.9.12,2.57,2.57,0,0,0,.78-.11,1.61,1.61,0,0,0,.55-.31,1.25,1.25,0,0,0,.44-1,.9.9,0,0,0-.2-.59,1.71,1.71,0,0,0-.53-.41,3.67,3.67,0,0,0-.75-.3L550,88c-.29-.1-.58-.21-.86-.33a3.2,3.2,0,0,1-.75-.48,2.16,2.16,0,0,1-.53-.7,2.22,2.22,0,0,1-.21-1,2.6,2.6,0,0,1,.22-1,2.51,2.51,0,0,1,.64-.85,3.18,3.18,0,0,1,1-.59,4.09,4.09,0,0,1,1.41-.22,4.31,4.31,0,0,1,1.64.29,3.56,3.56,0,0,1,1.25.79Z"/><path class="cls-1" d="M406.71,105.86a5,5,0,0,1,3.62-1.45,3.52,3.52,0,0,1,1.39.26,3,3,0,0,1,1,.71,3.12,3.12,0,0,1,.62,1.1,4.53,4.53,0,0,1,.21,1.41v5.84h-.78a.7.7,0,0,1-.39-.09.57.57,0,0,1-.22-.32l-.19-.8a5.77,5.77,0,0,1-.69.57,3.75,3.75,0,0,1-.72.42,3.51,3.51,0,0,1-.79.27,4.62,4.62,0,0,1-.94.09,3.29,3.29,0,0,1-1-.15,2.38,2.38,0,0,1-.83-.45,2.3,2.3,0,0,1-.55-.77,2.72,2.72,0,0,1-.2-1.07,2.07,2.07,0,0,1,.29-1,2.76,2.76,0,0,1,.95-.9,6.35,6.35,0,0,1,1.73-.64,12.53,12.53,0,0,1,2.63-.29v-.67a2.27,2.27,0,0,0-.45-1.54,1.58,1.58,0,0,0-1.29-.52,2.71,2.71,0,0,0-1,.15,3.21,3.21,0,0,0-.67.32l-.5.31a.75.75,0,0,1-.44.15.48.48,0,0,1-.31-.1,1.15,1.15,0,0,1-.21-.23Zm5.15,3.81a14,14,0,0,0-1.82.16,4.85,4.85,0,0,0-1.22.35,1.58,1.58,0,0,0-.67.51,1.07,1.07,0,0,0-.21.65,1.51,1.51,0,0,0,.11.59,1.13,1.13,0,0,0,.31.4,1.07,1.07,0,0,0,.45.23,2.12,2.12,0,0,0,.57.08,3.36,3.36,0,0,0,.74-.08,4,4,0,0,0,.64-.23,2.86,2.86,0,0,0,.56-.37,6,6,0,0,0,.54-.49Z"/><path class="cls-1" d="M422.23,105.84a4.84,4.84,0,0,1,1.29-1,3.51,3.51,0,0,1,1.64-.38,3.24,3.24,0,0,1,1.44.31,3,3,0,0,1,1.1.89,4.22,4.22,0,0,1,.69,1.41,6.68,6.68,0,0,1,.24,1.87,7.1,7.1,0,0,1-.27,2,4.82,4.82,0,0,1-.79,1.55,3.63,3.63,0,0,1-1.23,1,3.83,3.83,0,0,1-1.64.35,4,4,0,0,1-.81-.08,2.89,2.89,0,0,1-.68-.25,2.54,2.54,0,0,1-.57-.4,3.63,3.63,0,0,1-.5-.53l-.08.77a.42.42,0,0,1-.45.37h-1.13V100.44h1.75Zm0,5.64a2.53,2.53,0,0,0,.94.79,2.64,2.64,0,0,0,1.1.22,2.22,2.22,0,0,0,1.88-.87,4.35,4.35,0,0,0,.66-2.64,4,4,0,0,0-.58-2.39,2,2,0,0,0-1.66-.76,2.53,2.53,0,0,0-1.31.34,3.94,3.94,0,0,0-1,1Z"/><path class="cls-1" d="M430.36,105.86a5.13,5.13,0,0,1,1.66-1.09,5.23,5.23,0,0,1,2-.36,3.5,3.5,0,0,1,1.38.26,2.81,2.81,0,0,1,1.64,1.81,4.25,4.25,0,0,1,.22,1.41v5.84h-.79a.7.7,0,0,1-.39-.09.62.62,0,0,1-.22-.32l-.19-.8a5.77,5.77,0,0,1-.69.57,3.75,3.75,0,0,1-.72.42,3.34,3.34,0,0,1-.79.27,4.55,4.55,0,0,1-.94.09,3.29,3.29,0,0,1-1-.15,2.25,2.25,0,0,1-.82-.45,2.19,2.19,0,0,1-.56-.77,2.72,2.72,0,0,1-.2-1.07,2.07,2.07,0,0,1,.29-1,2.71,2.71,0,0,1,1-.9,6.27,6.27,0,0,1,1.72-.64,12.53,12.53,0,0,1,2.63-.29v-.67a2.32,2.32,0,0,0-.44-1.54,1.61,1.61,0,0,0-1.3-.52,2.75,2.75,0,0,0-1,.15,3.21,3.21,0,0,0-.67.32l-.5.31a.72.72,0,0,1-.43.15.46.46,0,0,1-.31-.1,1,1,0,0,1-.22-.23Zm5.15,3.81a14,14,0,0,0-1.82.16,5,5,0,0,0-1.22.35,1.58,1.58,0,0,0-.67.51,1.07,1.07,0,0,0-.21.65,1.35,1.35,0,0,0,.12.59,1,1,0,0,0,.3.4,1.05,1.05,0,0,0,.46.23,2,2,0,0,0,.56.08,3.52,3.52,0,0,0,.75-.08,4.29,4.29,0,0,0,.63-.23A2.92,2.92,0,0,0,435,112a5.91,5.91,0,0,0,.53-.49Z"/><path class="cls-1" d="M441.24,106.34a4.29,4.29,0,0,1,1.06-1.42,2.29,2.29,0,0,1,1.5-.51,2.1,2.1,0,0,1,.56.07,1.29,1.29,0,0,1,.46.2l-.11,1.32a.3.3,0,0,1-.3.25,2.47,2.47,0,0,1-.38,0,2.36,2.36,0,0,0-.54,0,2.19,2.19,0,0,0-.75.12,1.76,1.76,0,0,0-.58.36,2.42,2.42,0,0,0-.45.58,5.82,5.82,0,0,0-.37.79v5.73h-1.76v-9.15h1a.55.55,0,0,1,.39.11.64.64,0,0,1,.15.36Z"/><path class="cls-1" d="M447.84,106.34a4.29,4.29,0,0,1,1.06-1.42,2.26,2.26,0,0,1,1.49-.51,2.12,2.12,0,0,1,.57.07,1.37,1.37,0,0,1,.46.2L451.3,106a.28.28,0,0,1-.29.25,2.33,2.33,0,0,1-.38,0,2.36,2.36,0,0,0-.54,0,2.15,2.15,0,0,0-.75.12,1.66,1.66,0,0,0-.58.36,2.74,2.74,0,0,0-.46.58,5.83,5.83,0,0,0-.36.79v5.73h-1.76v-9.15h1a.55.55,0,0,1,.39.11.64.64,0,0,1,.15.36Z"/><path class="cls-1" d="M455,101.76a1.23,1.23,0,0,1-.1.46,1.51,1.51,0,0,1-.27.39,1.33,1.33,0,0,1-.39.26,1.27,1.27,0,0,1-.47.09,1.22,1.22,0,0,1-.46-.09,1.42,1.42,0,0,1-.38-.26,1.27,1.27,0,0,1-.26-.39,1.22,1.22,0,0,1-.09-.46,1.28,1.28,0,0,1,.09-.48,1.22,1.22,0,0,1,.26-.38,1.26,1.26,0,0,1,.38-.27,1.22,1.22,0,0,1,.46-.09,1.27,1.27,0,0,1,.47.09,1.19,1.19,0,0,1,.39.27,1.46,1.46,0,0,1,.27.38A1.29,1.29,0,0,1,455,101.76Zm-.34,2.82v9.15h-1.75v-9.15Z"/><path class="cls-1" d="M464.67,112.42a3.58,3.58,0,0,1-.75.65,4.21,4.21,0,0,1-.9.45,5.52,5.52,0,0,1-1,.25,6.74,6.74,0,0,1-1,.08,4.78,4.78,0,0,1-1.75-.32,3.78,3.78,0,0,1-1.39-.93,4.26,4.26,0,0,1-.92-1.53,6.19,6.19,0,0,1-.33-2.11,5.14,5.14,0,0,1,.3-1.77,4.16,4.16,0,0,1,.85-1.44,3.86,3.86,0,0,1,1.35-1,4.35,4.35,0,0,1,1.8-.35,4.26,4.26,0,0,1,1.54.27,3.41,3.41,0,0,1,1.22.8,3.68,3.68,0,0,1,.81,1.29,5,5,0,0,1,.29,1.74,1.16,1.16,0,0,1-.09.55.37.37,0,0,1-.33.14h-6a4.89,4.89,0,0,0,.24,1.42,2.9,2.9,0,0,0,.57,1,2.22,2.22,0,0,0,.87.61,3.06,3.06,0,0,0,1.12.2,3.44,3.44,0,0,0,1-.14,5.28,5.28,0,0,0,.73-.29,4.77,4.77,0,0,0,.53-.3.69.69,0,0,1,.37-.13.38.38,0,0,1,.33.16Zm-1.45-4.28a3,3,0,0,0-.15-1,2.2,2.2,0,0,0-.44-.76,1.89,1.89,0,0,0-.7-.51,2.66,2.66,0,0,0-2.69.46,3,3,0,0,0-.81,1.78Z"/><path class="cls-1" d="M468.35,106.34a4.29,4.29,0,0,1,1.06-1.42,2.26,2.26,0,0,1,1.49-.51,2.12,2.12,0,0,1,.57.07,1.37,1.37,0,0,1,.46.2l-.12,1.32a.28.28,0,0,1-.29.25,2.47,2.47,0,0,1-.38,0,2.36,2.36,0,0,0-.54,0,2.19,2.19,0,0,0-.75.12,1.66,1.66,0,0,0-.58.36,2.42,2.42,0,0,0-.45.58,4.82,4.82,0,0,0-.37.79v5.73h-1.76v-9.15h1a.55.55,0,0,1,.39.11.64.64,0,0,1,.15.36Z"/><path class="cls-1" d="M479.62,101.76a1.22,1.22,0,0,1-.09.46,1.51,1.51,0,0,1-.27.39,1.33,1.33,0,0,1-.39.26,1.27,1.27,0,0,1-.47.09,1.22,1.22,0,0,1-.46-.09,1.42,1.42,0,0,1-.38-.26,1.27,1.27,0,0,1-.26-.39,1.23,1.23,0,0,1-.1-.46,1.29,1.29,0,0,1,.1-.48,1.22,1.22,0,0,1,.26-.38,1.26,1.26,0,0,1,.38-.27,1.22,1.22,0,0,1,.46-.09,1.27,1.27,0,0,1,.47.09,1.19,1.19,0,0,1,.39.27,1.46,1.46,0,0,1,.27.38A1.28,1.28,0,0,1,479.62,101.76Zm-.33,2.82v9.15h-1.75v-9.15Z"/><path class="cls-1" d="M483.49,105.85a5.67,5.67,0,0,1,.62-.58,3.76,3.76,0,0,1,.68-.44,4.13,4.13,0,0,1,.79-.29,3.62,3.62,0,0,1,.89-.1,3.22,3.22,0,0,1,1.33.25,2.62,2.62,0,0,1,1,.71,2.92,2.92,0,0,1,.58,1.09,4.54,4.54,0,0,1,.2,1.41v5.83h-1.76V107.9a2.32,2.32,0,0,0-.45-1.52,1.67,1.67,0,0,0-1.38-.55,2.62,2.62,0,0,0-1.26.32,4.06,4.06,0,0,0-1.1.87v6.71h-1.75v-9.15h1.05a.43.43,0,0,1,.46.35Z"/><path class="cls-1" d="M500.35,104.44a4.8,4.8,0,0,1,1.82.33,3.76,3.76,0,0,1,1.39.94,4.33,4.33,0,0,1,.88,1.49,5.9,5.9,0,0,1,.3,1.94,6,6,0,0,1-.3,2,4.28,4.28,0,0,1-.88,1.48,3.76,3.76,0,0,1-1.39.94,5.21,5.21,0,0,1-3.65,0,3.85,3.85,0,0,1-1.39-.94,4.15,4.15,0,0,1-.89-1.48,6,6,0,0,1-.31-2,5.89,5.89,0,0,1,.31-1.94,4.2,4.2,0,0,1,.89-1.49,3.85,3.85,0,0,1,1.39-.94A4.81,4.81,0,0,1,500.35,104.44Zm0,8a2.26,2.26,0,0,0,1.94-.87,4.14,4.14,0,0,0,.63-2.46,4.18,4.18,0,0,0-.63-2.46,2.6,2.6,0,0,0-3.9,0,4.11,4.11,0,0,0-.64,2.46,4.07,4.07,0,0,0,.64,2.46A2.28,2.28,0,0,0,500.35,112.48Z"/><path class="cls-1" d="M508.34,105.85a8.36,8.36,0,0,1,.62-.58,4.23,4.23,0,0,1,.69-.44,4.13,4.13,0,0,1,.79-.29,3.57,3.57,0,0,1,.89-.1,3.25,3.25,0,0,1,1.33.25,2.62,2.62,0,0,1,1,.71,3.07,3.07,0,0,1,.58,1.09,4.85,4.85,0,0,1,.2,1.41v5.83h-1.76V107.9a2.32,2.32,0,0,0-.45-1.52,1.67,1.67,0,0,0-1.38-.55,2.69,2.69,0,0,0-1.27.32,4.17,4.17,0,0,0-1.09.87v6.71H506.7v-9.15h1.05a.44.44,0,0,1,.46.35Z"/><path class="cls-1" d="M524.27,112.42a3.29,3.29,0,0,1-.74.65,4.73,4.73,0,0,1-.9.45,5.52,5.52,0,0,1-1,.25,6.85,6.85,0,0,1-1,.08,4.74,4.74,0,0,1-1.75-.32,3.82,3.82,0,0,1-1.4-.93,4.4,4.4,0,0,1-.92-1.53,6.19,6.19,0,0,1-.33-2.11,5.14,5.14,0,0,1,.3-1.77,4.32,4.32,0,0,1,.85-1.44,3.81,3.81,0,0,1,1.36-1,4.67,4.67,0,0,1,3.34-.08,3.5,3.5,0,0,1,1.22.8,3.66,3.66,0,0,1,.8,1.29,4.74,4.74,0,0,1,.3,1.74,1.16,1.16,0,0,1-.09.55.38.38,0,0,1-.34.14h-6a5.27,5.27,0,0,0,.23,1.42,2.76,2.76,0,0,0,.58,1,2.26,2.26,0,0,0,.86.61,3.15,3.15,0,0,0,1.13.2,3.33,3.33,0,0,0,1-.14,5.45,5.45,0,0,0,.74-.29,4.54,4.54,0,0,0,.52-.3.72.72,0,0,1,.38-.13.38.38,0,0,1,.33.16Zm-1.45-4.28a3,3,0,0,0-.15-1,2,2,0,0,0-.43-.76,2,2,0,0,0-.7-.51,2.42,2.42,0,0,0-1-.18,2.36,2.36,0,0,0-1.74.64,3.1,3.1,0,0,0-.8,1.78Z"/><path class="cls-1" d="M414.6,122v13.29h-1.06a.43.43,0,0,1-.46-.35l-.15-1.06A5,5,0,0,1,411.6,135a3.45,3.45,0,0,1-1.72.42,3.24,3.24,0,0,1-1.41-.3,3,3,0,0,1-1.09-.9,4.21,4.21,0,0,1-.69-1.46,7.59,7.59,0,0,1-.24-2,6.35,6.35,0,0,1,.27-1.89,4.6,4.6,0,0,1,.78-1.51,3.63,3.63,0,0,1,1.24-1,3.58,3.58,0,0,1,1.65-.37,3.35,3.35,0,0,1,1.41.27,3.47,3.47,0,0,1,1,.77v-5Zm-1.76,6.36a2.47,2.47,0,0,0-.94-.8,2.67,2.67,0,0,0-1.12-.22,2.2,2.2,0,0,0-1.86.87,4.13,4.13,0,0,0-.66,2.53,7,7,0,0,0,.14,1.49,2.85,2.85,0,0,0,.44,1,1.71,1.71,0,0,0,.69.57,2.19,2.19,0,0,0,.94.19,2.54,2.54,0,0,0,1.32-.34,4.11,4.11,0,0,0,1-1Z"/><path class="cls-1" d="M419.23,123.36a1.23,1.23,0,0,1-.1.46,1.36,1.36,0,0,1-.27.39,1.33,1.33,0,0,1-.39.26,1.27,1.27,0,0,1-.47.09,1.22,1.22,0,0,1-.46-.09,1.42,1.42,0,0,1-.38-.26,1.16,1.16,0,0,1-.26-.39,1.22,1.22,0,0,1-.09-.46,1.28,1.28,0,0,1,.09-.48,1.25,1.25,0,0,1,.64-.64,1.06,1.06,0,0,1,.46-.1,1.1,1.1,0,0,1,.47.1,1.16,1.16,0,0,1,.39.26,1.46,1.46,0,0,1,.27.38A1.29,1.29,0,0,1,419.23,123.36Zm-.34,2.82v9.15h-1.75v-9.15Z"/><path class="cls-1" d="M423.1,127.94a4.16,4.16,0,0,1,1.06-1.42,2.26,2.26,0,0,1,1.49-.51,2,2,0,0,1,.56.07,1.34,1.34,0,0,1,.47.2l-.12,1.32a.28.28,0,0,1-.3.25,2.38,2.38,0,0,1-.37,0,2.36,2.36,0,0,0-.54,0,2.15,2.15,0,0,0-.75.12,1.66,1.66,0,0,0-.58.36,2.74,2.74,0,0,0-.46.58,6.45,6.45,0,0,0-.36.79v5.73h-1.76v-9.15h1a.55.55,0,0,1,.39.11.64.64,0,0,1,.15.36Z"/><path class="cls-1" d="M435.2,134a3.14,3.14,0,0,1-.75.65,4.21,4.21,0,0,1-.9.45,5.21,5.21,0,0,1-1,.25,6.85,6.85,0,0,1-1,.08,4.54,4.54,0,0,1-1.75-.32,3.82,3.82,0,0,1-1.4-.93,4.31,4.31,0,0,1-.92-1.53,6.17,6.17,0,0,1-.33-2.1,5.16,5.16,0,0,1,.3-1.78,4.32,4.32,0,0,1,.85-1.44,3.81,3.81,0,0,1,1.36-1,4.67,4.67,0,0,1,3.34-.08,3.5,3.5,0,0,1,1.22.8,3.66,3.66,0,0,1,.8,1.29,4.74,4.74,0,0,1,.3,1.74,1.16,1.16,0,0,1-.09.55.38.38,0,0,1-.34.14h-6a5.27,5.27,0,0,0,.23,1.42,2.9,2.9,0,0,0,.58,1,2.35,2.35,0,0,0,.86.6,3.11,3.11,0,0,0,1.13.2,3.33,3.33,0,0,0,1-.14,5.45,5.45,0,0,0,.74-.29c.21-.11.38-.2.52-.29a.75.75,0,0,1,.37-.14.41.41,0,0,1,.34.16Zm-1.45-4.28a3,3,0,0,0-.15-1,2.11,2.11,0,0,0-.43-.76,2,2,0,0,0-.7-.51,2.42,2.42,0,0,0-1-.18,2.36,2.36,0,0,0-1.74.64,3.17,3.17,0,0,0-.81,1.78Z"/><path class="cls-1" d="M443.63,127.89a.78.78,0,0,1-.15.16.36.36,0,0,1-.22.06A.58.58,0,0,1,443,128a3,3,0,0,0-.39-.25,3.64,3.64,0,0,0-.58-.24,2.49,2.49,0,0,0-.83-.11,2.73,2.73,0,0,0-1.14.23,2.26,2.26,0,0,0-.83.67,3.1,3.1,0,0,0-.5,1,5.4,5.4,0,0,0-.17,1.39,5.18,5.18,0,0,0,.18,1.43,2.87,2.87,0,0,0,.52,1.05,2,2,0,0,0,.81.65,2.42,2.42,0,0,0,1.06.22A2.46,2.46,0,0,0,442,134a3,3,0,0,0,.62-.3c.16-.11.29-.21.4-.3a.53.53,0,0,1,.33-.14.41.41,0,0,1,.34.16l.5.65a3.17,3.17,0,0,1-.71.66,4.11,4.11,0,0,1-.83.44,4.62,4.62,0,0,1-.92.25,6.37,6.37,0,0,1-1,.08,4,4,0,0,1-1.59-.31,3.59,3.59,0,0,1-1.29-.92,4.47,4.47,0,0,1-.86-1.48,5.91,5.91,0,0,1-.32-2,6,6,0,0,1,.29-1.88,4.42,4.42,0,0,1,.83-1.49,4,4,0,0,1,1.37-1A4.69,4.69,0,0,1,441,126a4.42,4.42,0,0,1,1.73.31,4.25,4.25,0,0,1,1.33.89Z"/><path class="cls-1" d="M454.51,135.33h-1.77V127.6h-4.59V133a1.06,1.06,0,0,0,.27.8.9.9,0,0,0,.68.27,1.33,1.33,0,0,0,.42-.06l.3-.14.21-.14a.35.35,0,0,1,.16-.07.18.18,0,0,1,.14,0,.37.37,0,0,1,.11.13l.52.84a2.88,2.88,0,0,1-1,.61,3.39,3.39,0,0,1-1.23.22,2.24,2.24,0,0,1-1.7-.62,2.45,2.45,0,0,1-.6-1.77V127.6h-1.06a.37.37,0,0,1-.26-.09.36.36,0,0,1-.1-.28v-.71l1.49-.21.39-2.73a.42.42,0,0,1,.14-.24.4.4,0,0,1,.26-.08h.89v3.07h6.36Zm.39-12a1.1,1.1,0,0,1-.1.47,1.22,1.22,0,0,1-.26.38,1.16,1.16,0,0,1-.39.26,1.1,1.1,0,0,1-.47.1,1,1,0,0,1-.46-.1,1.25,1.25,0,0,1-.64-.64,1.1,1.1,0,0,1-.1-.47,1.26,1.26,0,0,1,.36-.87,1.42,1.42,0,0,1,.38-.26,1.18,1.18,0,0,1,.46-.09,1.27,1.27,0,0,1,.47.09,1.33,1.33,0,0,1,.39.26,1.26,1.26,0,0,1,.36.87Z"/><path class="cls-1" d="M461,126a4.8,4.8,0,0,1,1.82.33,3.76,3.76,0,0,1,1.39.94,4.33,4.33,0,0,1,.88,1.49,5.94,5.94,0,0,1,.3,1.94,6,6,0,0,1-.3,2,4.19,4.19,0,0,1-.88,1.48,3.76,3.76,0,0,1-1.39.94,5.21,5.21,0,0,1-3.65,0,3.85,3.85,0,0,1-1.39-.94,4.07,4.07,0,0,1-.89-1.48,5.76,5.76,0,0,1-.31-2,5.68,5.68,0,0,1,.31-1.94,4.2,4.2,0,0,1,.89-1.49,3.85,3.85,0,0,1,1.39-.94A4.81,4.81,0,0,1,461,126Zm0,8a2.23,2.23,0,0,0,1.93-.87,4.07,4.07,0,0,0,.64-2.46,4.11,4.11,0,0,0-.64-2.46,2.24,2.24,0,0,0-1.93-.88,2.28,2.28,0,0,0-2,.88,4.11,4.11,0,0,0-.64,2.46,4.07,4.07,0,0,0,.64,2.46A2.28,2.28,0,0,0,461,134.08Z"/><path class="cls-1" d="M468.94,127.45a8.36,8.36,0,0,1,.62-.58,4.23,4.23,0,0,1,.69-.44,4,4,0,0,1,.78-.29,3.71,3.71,0,0,1,.9-.1,3.25,3.25,0,0,1,1.33.25,2.62,2.62,0,0,1,1,.71,3.07,3.07,0,0,1,.58,1.09,4.85,4.85,0,0,1,.2,1.41v5.83h-1.77V129.5a2.32,2.32,0,0,0-.45-1.52,1.65,1.65,0,0,0-1.37-.55,2.69,2.69,0,0,0-1.27.32,4.39,4.39,0,0,0-1.09.87v6.71h-1.76v-9.15h1.06a.44.44,0,0,1,.46.35Z"/><path class="cls-1" d="M483.66,127.44a4.84,4.84,0,0,1,1.29-1,3.51,3.51,0,0,1,1.64-.38,3.21,3.21,0,0,1,1.44.31,3.05,3.05,0,0,1,1.1.89,4.22,4.22,0,0,1,.69,1.41,6.68,6.68,0,0,1,.24,1.87,7.1,7.1,0,0,1-.27,2,4.61,4.61,0,0,1-.78,1.55,3.46,3.46,0,0,1-1.24,1,3.79,3.79,0,0,1-1.64.35,4.12,4.12,0,0,1-.81-.08,2.89,2.89,0,0,1-.68-.25,2.54,2.54,0,0,1-.57-.4,4.26,4.26,0,0,1-.5-.53l-.08.77a.41.41,0,0,1-.45.37h-1.13V122h1.75Zm0,5.64a2.53,2.53,0,0,0,.94.79,2.67,2.67,0,0,0,1.1.22,2.22,2.22,0,0,0,1.88-.87,4.28,4.28,0,0,0,.67-2.64,3.94,3.94,0,0,0-.59-2.39,2,2,0,0,0-1.65-.76,2.39,2.39,0,0,0-1.31.35,3.76,3.76,0,0,0-1,1Z"/><path class="cls-1" d="M499.63,126.18v9.15h-1.05a.45.45,0,0,1-.47-.35l-.13-.92a4.76,4.76,0,0,1-.62.57,3.15,3.15,0,0,1-.69.45,4.3,4.3,0,0,1-.78.29,3.68,3.68,0,0,1-.89.1,3.22,3.22,0,0,1-1.33-.25,2.73,2.73,0,0,1-1-.71,3,3,0,0,1-.58-1.09,4.56,4.56,0,0,1-.2-1.42v-5.82h1.76V132a2.33,2.33,0,0,0,.45,1.53,1.69,1.69,0,0,0,1.38.54,2.61,2.61,0,0,0,1.26-.31,4.68,4.68,0,0,0,1.1-.88v-6.7Z"/><path class="cls-1" d="M505,135.47a2.28,2.28,0,0,1-1.71-.62,2.49,2.49,0,0,1-.59-1.77V127.6h-1.07a.37.37,0,0,1-.25-.09.36.36,0,0,1-.11-.28v-.71l1.49-.21.4-2.73a.47.47,0,0,1,.13-.24.46.46,0,0,1,.27-.08h.89v3.07H507v1.27H504.4V133a1.06,1.06,0,0,0,.27.8.9.9,0,0,0,.68.27,1.22,1.22,0,0,0,.41-.06l.31-.14.21-.14a.35.35,0,0,1,.16-.07.2.2,0,0,1,.14,0,.37.37,0,0,1,.11.13l.52.84a2.88,2.88,0,0,1-1,.61A3.39,3.39,0,0,1,505,135.47Z"/><path class="cls-1" d="M514.8,127.45a5.67,5.67,0,0,1,.62-.58,3.52,3.52,0,0,1,.69-.44,3.81,3.81,0,0,1,.78-.29,3.68,3.68,0,0,1,.89-.1,3.22,3.22,0,0,1,1.33.25,2.62,2.62,0,0,1,1,.71,2.92,2.92,0,0,1,.58,1.09,4.54,4.54,0,0,1,.2,1.41v5.83h-1.76V129.5a2.32,2.32,0,0,0-.45-1.52,1.67,1.67,0,0,0-1.38-.55,2.62,2.62,0,0,0-1.26.32,4.26,4.26,0,0,0-1.1.87v6.71h-1.75v-9.15h1.05a.43.43,0,0,1,.46.35Z"/><path class="cls-1" d="M527.12,126a4.8,4.8,0,0,1,1.82.33,3.81,3.81,0,0,1,1.38.94,4,4,0,0,1,.88,1.49,5.68,5.68,0,0,1,.31,1.94,5.76,5.76,0,0,1-.31,2,3.92,3.92,0,0,1-.88,1.48,3.81,3.81,0,0,1-1.38.94,4.8,4.8,0,0,1-1.82.33,4.9,4.9,0,0,1-1.84-.33,3.93,3.93,0,0,1-1.39-.94,4,4,0,0,1-.88-1.48,5.76,5.76,0,0,1-.31-2,5.68,5.68,0,0,1,.31-1.94,4.18,4.18,0,0,1,.88-1.49,3.93,3.93,0,0,1,1.39-.94A4.9,4.9,0,0,1,527.12,126Zm0,8a2.23,2.23,0,0,0,1.93-.87,4.07,4.07,0,0,0,.64-2.46,4.11,4.11,0,0,0-.64-2.46,2.24,2.24,0,0,0-1.93-.88,2.28,2.28,0,0,0-2,.88,4.11,4.11,0,0,0-.64,2.46,4.07,4.07,0,0,0,.64,2.46A2.28,2.28,0,0,0,527.12,134.08Z"/><path class="cls-1" d="M536.15,135.47a2.26,2.26,0,0,1-1.7-.62,2.45,2.45,0,0,1-.6-1.77V127.6h-1.06a.37.37,0,0,1-.26-.09.36.36,0,0,1-.1-.28v-.71l1.48-.21.4-2.73a.42.42,0,0,1,.14-.24.42.42,0,0,1,.26-.08h.89v3.07h2.6v1.27h-2.6V133a1.06,1.06,0,0,0,.27.8.91.91,0,0,0,.68.27A1.33,1.33,0,0,0,537,134l.3-.14.21-.14a.34.34,0,0,1,.17-.07.22.22,0,0,1,.14,0,.53.53,0,0,1,.1.13l.52.84a2.92,2.92,0,0,1-1,.61A3.49,3.49,0,0,1,536.15,135.47Z"/><path class="cls-1" d="M409.8,157.07a2.27,2.27,0,0,1-1.7-.62,2.46,2.46,0,0,1-.6-1.77V149.2h-1.06a.39.39,0,0,1-.26-.09.36.36,0,0,1-.1-.28v-.72l1.48-.2.4-2.73a.42.42,0,0,1,.14-.24.45.45,0,0,1,.26-.08h.89v3.07h2.6v1.27h-2.6v5.36a1.06,1.06,0,0,0,.27.8.91.91,0,0,0,.68.27,1.33,1.33,0,0,0,.42-.06,2.15,2.15,0,0,0,.3-.14l.22-.14a.31.31,0,0,1,.16-.07.22.22,0,0,1,.14.05.53.53,0,0,1,.1.13l.52.84a2.92,2.92,0,0,1-1,.61A3.49,3.49,0,0,1,409.8,157.07Z"/><path class="cls-1" d="M415.21,148.94a5,5,0,0,1,1.28-.94,3.43,3.43,0,0,1,1.6-.36,3.22,3.22,0,0,1,1.33.25,2.62,2.62,0,0,1,1,.71,2.92,2.92,0,0,1,.58,1.09,4.54,4.54,0,0,1,.2,1.41v5.83H419.4V151.1a2.32,2.32,0,0,0-.45-1.52,1.67,1.67,0,0,0-1.38-.55,2.62,2.62,0,0,0-1.26.32,4.26,4.26,0,0,0-1.1.87v6.71h-1.75V143.64h1.75Z"/><path class="cls-1" d="M431,155.62a3.29,3.29,0,0,1-.74.65,4.21,4.21,0,0,1-.9.45,5.52,5.52,0,0,1-1,.25,6.85,6.85,0,0,1-1,.08,4.78,4.78,0,0,1-1.75-.32,3.9,3.9,0,0,1-1.4-.93,4.24,4.24,0,0,1-.91-1.53,6.19,6.19,0,0,1-.33-2.11,5.39,5.39,0,0,1,.29-1.77,4.32,4.32,0,0,1,.85-1.44,3.81,3.81,0,0,1,1.36-1,4.32,4.32,0,0,1,1.8-.35,4.26,4.26,0,0,1,1.54.27,3.5,3.5,0,0,1,1.22.8,3.83,3.83,0,0,1,.81,1.29,5,5,0,0,1,.29,1.74,1.16,1.16,0,0,1-.09.55.37.37,0,0,1-.33.14h-6a4.89,4.89,0,0,0,.24,1.42,2.75,2.75,0,0,0,.57,1,2.22,2.22,0,0,0,.87.61,3.06,3.06,0,0,0,1.12.2,3.33,3.33,0,0,0,1-.14,5.45,5.45,0,0,0,.74-.29,4.54,4.54,0,0,0,.52-.3.82.82,0,0,1,.38-.13.38.38,0,0,1,.33.16Zm-1.44-4.28a3,3,0,0,0-.15-1,2.2,2.2,0,0,0-.44-.76,2,2,0,0,0-.7-.51,2.42,2.42,0,0,0-1-.18,2.39,2.39,0,0,0-1.74.64,3.1,3.1,0,0,0-.8,1.78Z"/><path class="cls-1" d="M441.5,147.64a4.8,4.8,0,0,1,1.82.33,3.76,3.76,0,0,1,1.39.94,4.33,4.33,0,0,1,.88,1.49,5.9,5.9,0,0,1,.3,1.94,6,6,0,0,1-.3,2,4.28,4.28,0,0,1-.88,1.48,3.76,3.76,0,0,1-1.39.94,5.21,5.21,0,0,1-3.65,0,3.85,3.85,0,0,1-1.39-.94,4.3,4.3,0,0,1-.89-1.48,6,6,0,0,1-.31-2,5.89,5.89,0,0,1,.31-1.94,4.35,4.35,0,0,1,.89-1.49,3.85,3.85,0,0,1,1.39-.94A4.81,4.81,0,0,1,441.5,147.64Zm0,8a2.25,2.25,0,0,0,1.94-.87,4.14,4.14,0,0,0,.64-2.46,4.18,4.18,0,0,0-.64-2.46,2.26,2.26,0,0,0-1.94-.88,2.3,2.3,0,0,0-2,.88,4.11,4.11,0,0,0-.64,2.46,4.07,4.07,0,0,0,.64,2.46A2.29,2.29,0,0,0,441.5,155.68Z"/><path class="cls-1" d="M450.54,157.07a2.28,2.28,0,0,1-1.71-.62,2.46,2.46,0,0,1-.6-1.77V149.2h-1.06a.39.39,0,0,1-.26-.09.4.4,0,0,1-.1-.28v-.72l1.49-.2.39-2.73a.48.48,0,0,1,.14-.24.46.46,0,0,1,.27-.08H450v3.07h2.59v1.27H450v5.36a1.1,1.1,0,0,0,.26.8.93.93,0,0,0,.68.27,1.33,1.33,0,0,0,.42-.06,2.15,2.15,0,0,0,.3-.14l.22-.14a.31.31,0,0,1,.16-.07.2.2,0,0,1,.14.05.36.36,0,0,1,.1.13l.53.84a2.88,2.88,0,0,1-1,.61A3.47,3.47,0,0,1,450.54,157.07Z"/><path class="cls-1" d="M456,148.94a4.81,4.81,0,0,1,1.27-.94,3.44,3.44,0,0,1,1.61-.36,3.21,3.21,0,0,1,1.32.25,2.62,2.62,0,0,1,1,.71,2.94,2.94,0,0,1,.59,1.09,4.85,4.85,0,0,1,.2,1.41v5.83h-1.77V151.1a2.32,2.32,0,0,0-.45-1.52,1.67,1.67,0,0,0-1.38-.55,2.62,2.62,0,0,0-1.26.32,4.22,4.22,0,0,0-1.09.87v6.71h-1.76V143.64H456Z"/><path class="cls-1" d="M471.77,155.62a3.58,3.58,0,0,1-.75.65,4.21,4.21,0,0,1-.9.45,5.64,5.64,0,0,1-1,.25,7,7,0,0,1-1,.08,4.78,4.78,0,0,1-1.75-.32,3.78,3.78,0,0,1-1.39-.93,4.26,4.26,0,0,1-.92-1.53,6.19,6.19,0,0,1-.33-2.11,5.14,5.14,0,0,1,.3-1.77,4.32,4.32,0,0,1,.85-1.44,3.86,3.86,0,0,1,1.35-1,4.7,4.7,0,0,1,3.35-.08,3.46,3.46,0,0,1,1.21.8,3.55,3.55,0,0,1,.81,1.29,4.74,4.74,0,0,1,.29,1.74,1.16,1.16,0,0,1-.09.55.37.37,0,0,1-.33.14h-6a4.59,4.59,0,0,0,.23,1.42,2.9,2.9,0,0,0,.57,1,2.22,2.22,0,0,0,.87.61,3.1,3.1,0,0,0,1.12.2,3.44,3.44,0,0,0,1-.14,6,6,0,0,0,.74-.29,5.61,5.61,0,0,0,.52-.3.79.79,0,0,1,.37-.13.37.37,0,0,1,.33.16Zm-1.45-4.28a3,3,0,0,0-.15-1,2.05,2.05,0,0,0-.44-.76,1.89,1.89,0,0,0-.7-.51,2.66,2.66,0,0,0-2.69.46,3,3,0,0,0-.81,1.78Z"/><path class="cls-1" d="M475.45,149.54a4.29,4.29,0,0,1,1.06-1.42,2.26,2.26,0,0,1,1.49-.51,2.12,2.12,0,0,1,.57.07,1.37,1.37,0,0,1,.46.2l-.12,1.32a.28.28,0,0,1-.29.25,2.47,2.47,0,0,1-.38,0,2.36,2.36,0,0,0-.54-.05,2.19,2.19,0,0,0-.75.12,1.76,1.76,0,0,0-.58.36,2.42,2.42,0,0,0-.45.58,5.25,5.25,0,0,0-.37.79v5.73h-1.76v-9.15h1a.55.55,0,0,1,.39.11.64.64,0,0,1,.15.36Z"/><path class="cls-1" d="M479.39,155.87a1.22,1.22,0,0,1,.09-.46,1.05,1.05,0,0,1,.25-.37,1.08,1.08,0,0,1,.37-.26,1.18,1.18,0,0,1,1.31.26,1.21,1.21,0,0,1,.25.37,1.06,1.06,0,0,1,.1.46,1,1,0,0,1-.1.47,1.39,1.39,0,0,1-.25.38,1.19,1.19,0,0,1-.38.25,1.22,1.22,0,0,1-.46.09,1.23,1.23,0,0,1-.47-.09,1.05,1.05,0,0,1-.37-.25,1.2,1.2,0,0,1-.34-.85Z"/><text class="cls-2" transform="translate(155.56 131.1)">STLR</text><text class="cls-2" transform="translate(160.96 56.69)">LDR</text><text class="cls-2" transform="translate(160.96 81.5)">STR</text><text class="cls-2" transform="translate(160.96 191.34)">LDR</text><text class="cls-2" transform="translate(160.96 216.14)">STR</text><rect class="cls-3" x="127.56" y="28.59" width="99.21" height="70.63"/><rect class="cls-3" x="127.56" y="170.08" width="99.21" height="56.69"/><polyline class="cls-4" points="226.77 63.78 297.64 63.78 297.64 121.82"/><polygon class="cls-1" points="293.65 120.65 297.64 127.56 301.63 120.65 293.65 120.65"/><polyline class="cls-4" points="127.56 198.43 99.21 198.43 99.21 34.09"/><polygon class="cls-1" points="103.2 35.25 99.21 28.35 95.22 35.25 103.2 35.25"/><line class="cls-3" x1="325.98" y1="127.56" x2="212.6" y2="127.56"/><line class="cls-4" x1="345.29" y1="124.99" x2="396.85" y2="99.21"/><polygon class="cls-1" points="348.12 128.04 340.16 127.56 344.55 120.9 348.12 128.04"/><line class="cls-3" x1="141.73" y1="127.56" x2="28.35" y2="127.56"/></svg>