<svg xmlns="http://www.w3.org/2000/svg" width="210mm" height="99.386mm" viewBox="0 0 595.276 281.724">
  <g>
    <path d="M162.606,119.812v-.246a.563.563,0,0,1,.1-.378.372.372,0,0,1,.536,0,.568.568,0,0,1,.1.378v1.881a.568.568,0,0,1-.1.378.342.342,0,0,1-.268.114.346.346,0,0,1-.26-.1.513.513,0,0,1-.109-.343,1.854,1.854,0,0,0-.761-1.327,3.3,3.3,0,0,0-3.818.039,1.91,1.91,0,0,0-.721,1.481,1.6,1.6,0,0,0,.2.8,1.672,1.672,0,0,0,.536.584,2.97,2.97,0,0,0,.756.361,10.115,10.115,0,0,0,1.318.286,9.6,9.6,0,0,1,2.075.5,2.455,2.455,0,0,1,1.546,2.381,2.782,2.782,0,0,1-1.01,2.159,3.973,3.973,0,0,1-2.725.891,4.056,4.056,0,0,1-3.076-1.2v.422a.568.568,0,0,1-.1.378.367.367,0,0,1-.532,0,.551.551,0,0,1-.1-.378v-2.039a.58.58,0,0,1,.1-.387.339.339,0,0,1,.268-.114.344.344,0,0,1,.259.105.518.518,0,0,1,.11.343,2.044,2.044,0,0,0,.866,1.473,3.415,3.415,0,0,0,2.21.663,3.248,3.248,0,0,0,2.193-.694,2.109,2.109,0,0,0,.8-1.644,1.792,1.792,0,0,0-.307-1.032,2.066,2.066,0,0,0-.915-.717,9.189,9.189,0,0,0-1.757-.413,6,6,0,0,1-2.646-.941,2.152,2.152,0,0,1-.808-1.8,2.594,2.594,0,0,1,.927-2,3.517,3.517,0,0,1,2.448-.835A3.915,3.915,0,0,1,162.606,119.812Z" fill="#333e48"/>
    <path d="M171.131,119.812v8.807h1.916a.568.568,0,0,1,.378.1.342.342,0,0,1,.114.268.347.347,0,0,1-.114.264.551.551,0,0,1-.378.1h-4.579a.551.551,0,0,1-.378-.1.347.347,0,0,1-.114-.264.342.342,0,0,1,.114-.268.568.568,0,0,1,.378-.1h1.916v-8.807h-3.023v2.558a.583.583,0,0,1-.1.387.339.339,0,0,1-.268.114.343.343,0,0,1-.263-.114.565.565,0,0,1-.106-.387v-3.3h8.271v3.3a.589.589,0,0,1-.1.387.372.372,0,0,1-.536,0,.583.583,0,0,1-.1-.387v-2.558Z" fill="#333e48"/>
    <path d="M180.289,119.812v8.807h4.905v-2.936a.554.554,0,0,1,.105-.378.378.378,0,0,1,.536-.005.555.555,0,0,1,.106.383v3.674h-8.157a.554.554,0,0,1-.378-.1.347.347,0,0,1-.114-.264.342.342,0,0,1,.114-.268.572.572,0,0,1,.378-.1h1.758v-8.807h-1.758a.566.566,0,0,1-.378-.1.372.372,0,0,1,0-.536.572.572,0,0,1,.378-.1h4.263a.568.568,0,0,1,.378.1.372.372,0,0,1,0,.536.563.563,0,0,1-.378.1Z" fill="#333e48"/>
    <path d="M189.966,124.769v3.85h1.362a.585.585,0,0,1,.387.1.342.342,0,0,1,.114.268.347.347,0,0,1-.114.264.567.567,0,0,1-.387.1h-3.093a.551.551,0,0,1-.378-.1.344.344,0,0,1-.115-.264.339.339,0,0,1,.115-.268.568.568,0,0,1,.378-.1h.993v-8.807h-.993a.563.563,0,0,1-.378-.1.37.37,0,0,1,0-.536.568.568,0,0,1,.378-.1H192.7a3.3,3.3,0,0,1,2.325.875,2.634,2.634,0,0,1,.945,1.973,2.287,2.287,0,0,1-.585,1.49,4.317,4.317,0,0,1-1.955,1.164,6.517,6.517,0,0,1,1.353,1.23,25.369,25.369,0,0,1,1.8,2.813h.563a.572.572,0,0,1,.378.1.342.342,0,0,1,.114.268.347.347,0,0,1-.114.264.554.554,0,0,1-.378.1h-.985a20.508,20.508,0,0,0-2.122-3.287,5.5,5.5,0,0,0-1.727-1.3Zm0-.738h2.013a4.239,4.239,0,0,0,1.753-.352,2.834,2.834,0,0,0,1.143-.826,1.6,1.6,0,0,0,.356-.967,1.907,1.907,0,0,0-.743-1.406,2.606,2.606,0,0,0-1.806-.668h-2.716Z" fill="#333e48"/>
  </g>
  <g>
    <path d="M164.087,45.408v8.807h4.9V51.279a.551.551,0,0,1,.1-.378.378.378,0,0,1,.536-.005.547.547,0,0,1,.106.383v3.674h-8.156a.546.546,0,0,1-.378-.106.343.343,0,0,1-.114-.263.339.339,0,0,1,.114-.268.568.568,0,0,1,.378-.1h1.758V45.408h-1.758a.557.557,0,0,1-.378-.1.337.337,0,0,1-.114-.267.341.341,0,0,1,.114-.268.568.568,0,0,1,.378-.1h4.262a.568.568,0,0,1,.378.1.341.341,0,0,1,.115.268.338.338,0,0,1-.115.267.557.557,0,0,1-.378.1Z" fill="#333e48"/>
    <path d="M173.271,54.215V45.408h-.624a.557.557,0,0,1-.378-.1.337.337,0,0,1-.114-.267.341.341,0,0,1,.114-.268.568.568,0,0,1,.378-.1h3.973a3.737,3.737,0,0,1,1.7.386,3.572,3.572,0,0,1,1.174.879,6.33,6.33,0,0,1,1.054,1.767,4.531,4.531,0,0,1,.255,1.6v1.02a5.1,5.1,0,0,1-.5,2.2,4.663,4.663,0,0,1-1.67,1.855,3.546,3.546,0,0,1-2.012.58h-3.973a.546.546,0,0,1-.378-.106.343.343,0,0,1-.114-.263.339.339,0,0,1,.114-.268.568.568,0,0,1,.378-.1Zm.738,0h2.681a2.867,2.867,0,0,0,1.745-.607,3.929,3.929,0,0,0,1.221-1.454,3.829,3.829,0,0,0,.409-1.675V49.143a3.184,3.184,0,0,0-.22-1.221,5.667,5.667,0,0,0-.9-1.486,2.961,2.961,0,0,0-.932-.708,2.836,2.836,0,0,0-1.327-.32h-2.681Z" fill="#333e48"/>
    <path d="M184.565,50.365v3.85h1.362a.585.585,0,0,1,.387.1.339.339,0,0,1,.114.268.343.343,0,0,1-.114.263.562.562,0,0,1-.387.106h-3.093a.546.546,0,0,1-.378-.106.344.344,0,0,1-.115-.263.34.34,0,0,1,.115-.268.568.568,0,0,1,.378-.1h.993V45.408h-.993a.557.557,0,0,1-.378-.1.338.338,0,0,1-.115-.267.341.341,0,0,1,.115-.268.568.568,0,0,1,.378-.1H187.3a3.3,3.3,0,0,1,2.325.875,2.633,2.633,0,0,1,.945,1.972,2.292,2.292,0,0,1-.584,1.491,4.335,4.335,0,0,1-1.956,1.164,6.523,6.523,0,0,1,1.354,1.23,25.408,25.408,0,0,1,1.8,2.813h.563a.568.568,0,0,1,.378.1.339.339,0,0,1,.114.268.343.343,0,0,1-.114.263.546.546,0,0,1-.378.106h-.985a20.46,20.46,0,0,0-2.122-3.287,5.484,5.484,0,0,0-1.727-1.3Zm0-.738h2.013a4.255,4.255,0,0,0,1.753-.352,2.844,2.844,0,0,0,1.143-.826,1.6,1.6,0,0,0,.356-.967,1.907,1.907,0,0,0-.743-1.406,2.606,2.606,0,0,0-1.806-.668h-2.716Z" fill="#333e48"/>
  </g>
  <g>
    <path d="M168.007,70.213v-.246a.563.563,0,0,1,.1-.378.37.37,0,0,1,.536,0,.568.568,0,0,1,.1.378v1.88a.568.568,0,0,1-.1.378.343.343,0,0,1-.268.115.347.347,0,0,1-.26-.106.509.509,0,0,1-.109-.343,1.856,1.856,0,0,0-.761-1.327,3.3,3.3,0,0,0-3.819.039,1.912,1.912,0,0,0-.72,1.482,1.6,1.6,0,0,0,.2.8,1.664,1.664,0,0,0,.536.584,2.972,2.972,0,0,0,.756.362,10.151,10.151,0,0,0,1.318.285,9.573,9.573,0,0,1,2.074.5A2.454,2.454,0,0,1,169.14,77a2.78,2.78,0,0,1-1.01,2.158,3.969,3.969,0,0,1-2.725.892,4.056,4.056,0,0,1-3.076-1.2v.422a.568.568,0,0,1-.1.378.365.365,0,0,1-.532,0,.551.551,0,0,1-.106-.378V77.226a.578.578,0,0,1,.1-.386.337.337,0,0,1,.268-.115.341.341,0,0,1,.259.106.514.514,0,0,1,.11.343,2.042,2.042,0,0,0,.865,1.472,3.414,3.414,0,0,0,2.211.663,3.242,3.242,0,0,0,2.193-.694,2.109,2.109,0,0,0,.8-1.644,1.8,1.8,0,0,0-.308-1.032,2.058,2.058,0,0,0-.914-.717,9.269,9.269,0,0,0-1.757-.413,6,6,0,0,1-2.646-.94,2.155,2.155,0,0,1-.809-1.8,2.6,2.6,0,0,1,.928-1.995,3.516,3.516,0,0,1,2.447-.835A3.912,3.912,0,0,1,168.007,70.213Z" fill="#333e48"/>
    <path d="M176.532,70.213v8.806h1.916a.562.562,0,0,1,.378.1.338.338,0,0,1,.114.267.344.344,0,0,1-.114.264.551.551,0,0,1-.378.106h-4.579a.551.551,0,0,1-.378-.106.344.344,0,0,1-.114-.264.338.338,0,0,1,.114-.267.562.562,0,0,1,.378-.1h1.916V70.213h-3.024V72.77a.58.58,0,0,1-.1.387.339.339,0,0,1-.268.114.343.343,0,0,1-.263-.114.562.562,0,0,1-.106-.387v-3.3h8.271v3.3a.585.585,0,0,1-.1.387.373.373,0,0,1-.537,0,.585.585,0,0,1-.1-.387V70.213Z" fill="#333e48"/>
    <path d="M184.565,75.17v3.849h1.362a.579.579,0,0,1,.387.1.338.338,0,0,1,.114.267.344.344,0,0,1-.114.264.567.567,0,0,1-.387.106h-3.093a.551.551,0,0,1-.378-.106.345.345,0,0,1-.115-.264.339.339,0,0,1,.115-.267.562.562,0,0,1,.378-.1h.993V70.213h-.993a.562.562,0,0,1-.378-.1.369.369,0,0,1,0-.535.562.562,0,0,1,.378-.1H187.3a3.3,3.3,0,0,1,2.325.875,2.635,2.635,0,0,1,.945,1.973,2.291,2.291,0,0,1-.584,1.49,4.318,4.318,0,0,1-1.956,1.164,6.555,6.555,0,0,1,1.354,1.231,25.364,25.364,0,0,1,1.8,2.812h.563a.562.562,0,0,1,.378.1.338.338,0,0,1,.114.267.344.344,0,0,1-.114.264.551.551,0,0,1-.378.106h-.985a20.531,20.531,0,0,0-2.122-3.288,5.5,5.5,0,0,0-1.727-1.3Zm0-.739h2.013a4.255,4.255,0,0,0,1.753-.351,2.853,2.853,0,0,0,1.143-.826,1.6,1.6,0,0,0,.356-.967,1.907,1.907,0,0,0-.743-1.406,2.6,2.6,0,0,0-1.806-.668h-2.716Z" fill="#333e48"/>
  </g>
  <g>
    <path d="M154.282,164.109v8.807h4.905V169.98a.551.551,0,0,1,.1-.378.378.378,0,0,1,.536,0,.55.55,0,0,1,.106.383v3.674h-8.157a.55.55,0,0,1-.377-.1.344.344,0,0,1-.115-.264.339.339,0,0,1,.115-.268.567.567,0,0,1,.377-.1h1.758v-8.807h-1.758a.562.562,0,0,1-.377-.1.37.37,0,0,1,0-.536.567.567,0,0,1,.377-.1h4.263a.568.568,0,0,1,.378.1.372.372,0,0,1,0,.536.563.563,0,0,1-.378.1Z" fill="#333e48"/>
    <path d="M163.467,172.916v-8.807h-.624a.563.563,0,0,1-.378-.1.372.372,0,0,1,0-.536.568.568,0,0,1,.378-.1h3.973a3.725,3.725,0,0,1,1.7.387,3.557,3.557,0,0,1,1.174.878,6.354,6.354,0,0,1,1.054,1.767A4.533,4.533,0,0,1,171,168v1.019a5.1,5.1,0,0,1-.5,2.2,4.656,4.656,0,0,1-1.67,1.855,3.541,3.541,0,0,1-2.012.58h-3.973a.551.551,0,0,1-.378-.1.347.347,0,0,1-.114-.264.342.342,0,0,1,.114-.268.568.568,0,0,1,.378-.1Zm.738,0h2.681a2.861,2.861,0,0,0,1.745-.607,3.921,3.921,0,0,0,1.221-1.454,3.829,3.829,0,0,0,.409-1.675v-1.336a3.184,3.184,0,0,0-.22-1.221,5.694,5.694,0,0,0-.9-1.486,2.976,2.976,0,0,0-.932-.708,2.848,2.848,0,0,0-1.327-.32h-2.681Z" fill="#333e48"/>
    <path d="M179.6,170.217h-4.852l-.993,2.7h1.415a.568.568,0,0,1,.378.1.342.342,0,0,1,.114.268.347.347,0,0,1-.114.264.551.551,0,0,1-.378.1h-2.76a.554.554,0,0,1-.378-.1.347.347,0,0,1-.114-.264.342.342,0,0,1,.114-.268.572.572,0,0,1,.378-.1h.572l3.26-8.807h-2.179a.563.563,0,0,1-.378-.1.372.372,0,0,1,0-.536.568.568,0,0,1,.378-.1h3.718l3.6,9.545h.571a.568.568,0,0,1,.378.1.343.343,0,0,1,.115.268.348.348,0,0,1-.115.264.551.551,0,0,1-.378.1H179.2a.566.566,0,0,1-.386-.1.344.344,0,0,1-.115-.264.339.339,0,0,1,.115-.268.584.584,0,0,1,.386-.1h1.407Zm-.281-.738-2.039-5.37H177l-1.977,5.37Z" fill="#333e48"/>
    <path d="M186.362,169.435v3.481h2.532a.572.572,0,0,1,.378.1.342.342,0,0,1,.114.268.347.347,0,0,1-.114.264.554.554,0,0,1-.378.1h-4.263a.551.551,0,0,1-.378-.1.347.347,0,0,1-.114-.264.342.342,0,0,1,.114-.268.568.568,0,0,1,.378-.1h.993v-8.807h-.993a.563.563,0,0,1-.378-.1.372.372,0,0,1,0-.536.568.568,0,0,1,.378-.1h4.289a3.5,3.5,0,0,1,2.483.9,2.784,2.784,0,0,1,.962,2.1,2.634,2.634,0,0,1-.312,1.283,2.7,2.7,0,0,1-.751.9,4.718,4.718,0,0,1-1.362.72,4.1,4.1,0,0,1-1.266.167Zm0-.738h2.356a3.325,3.325,0,0,0,1.534-.365,2.551,2.551,0,0,0,1.046-.892,2.006,2.006,0,0,0,.329-1.072,2.1,2.1,0,0,0-.747-1.565,2.671,2.671,0,0,0-1.89-.694h-2.628Z" fill="#333e48"/>
    <path d="M196.364,169.066v3.85h1.363a.584.584,0,0,1,.386.1.339.339,0,0,1,.115.268.344.344,0,0,1-.115.264.566.566,0,0,1-.386.1h-3.094a.551.551,0,0,1-.378-.1.347.347,0,0,1-.114-.264.342.342,0,0,1,.114-.268.568.568,0,0,1,.378-.1h.993v-8.807h-.993a.563.563,0,0,1-.378-.1.372.372,0,0,1,0-.536.568.568,0,0,1,.378-.1H199.1a3.3,3.3,0,0,1,2.325.875,2.636,2.636,0,0,1,.944,1.972,2.287,2.287,0,0,1-.584,1.491,4.327,4.327,0,0,1-1.956,1.164,6.5,6.5,0,0,1,1.354,1.23,25.522,25.522,0,0,1,1.8,2.813h.562a.568.568,0,0,1,.378.1.342.342,0,0,1,.114.268.347.347,0,0,1-.114.264.551.551,0,0,1-.378.1h-.984a20.493,20.493,0,0,0-2.123-3.287,5.5,5.5,0,0,0-1.727-1.3Zm0-.738h2.013a4.244,4.244,0,0,0,1.754-.352,2.83,2.83,0,0,0,1.142-.826,1.6,1.6,0,0,0,.356-.967,1.9,1.9,0,0,0-.743-1.406,2.606,2.606,0,0,0-1.806-.668h-2.716Z" fill="#333e48"/>
  </g>
  <rect x="127.559" y="26.847" width="99.213" height="70.625" fill="none" stroke="#333e48" stroke-miterlimit="10" stroke-dasharray="5 3"/>
  <rect x="127.559" y="154.165" width="99.213" height="28.346" fill="none" stroke="#333e48" stroke-miterlimit="10" stroke-dasharray="5 3"/>
  <g>
    <polyline points="226.772 63.78 283.465 63.78 283.465 120.078" fill="none" stroke="#333e48" stroke-miterlimit="10"/>
    <polygon points="279.476 118.911 283.464 125.819 287.453 118.911 279.476 118.911" fill="#333e48"/>
  </g>
  <g>
    <polyline points="127.559 168.547 99.213 168.547 99.213 32.347" fill="none" stroke="#333e48" stroke-miterlimit="10"/>
    <polygon points="103.201 33.514 99.213 26.606 95.224 33.514 103.201 33.514" fill="#333e48"/>
  </g>
  <g>
    <polyline points="127.559 225.032 70.866 225.032 70.866 32.346" fill="none" stroke="#333e48" stroke-miterlimit="10"/>
    <polygon points="74.855 33.513 70.866 26.605 66.878 33.513 74.855 33.513" fill="#333e48"/>
  </g>
  <line x1="324.987" y1="125.819" x2="211.601" y2="125.819" fill="none" stroke="#333e48" stroke-miterlimit="10" stroke-dasharray="5 3"/>
  <g>
    <path d="M165.084,208.393V217.2h4.9v-2.936a.554.554,0,0,1,.106-.378.377.377,0,0,1,.536,0,.55.55,0,0,1,.106.382v3.674h-8.157a.551.551,0,0,1-.378-.1.367.367,0,0,1,0-.532.568.568,0,0,1,.378-.1h1.758v-8.807h-1.758a.563.563,0,0,1-.378-.1.371.371,0,0,1,0-.535.562.562,0,0,1,.378-.1h4.263a.562.562,0,0,1,.378.1.371.371,0,0,1,0,.535.563.563,0,0,1-.378.1Z" fill="#333e48"/>
    <path d="M174.269,217.2v-8.807h-.624a.563.563,0,0,1-.378-.1.369.369,0,0,1,0-.535.562.562,0,0,1,.378-.1h3.972a3.732,3.732,0,0,1,1.7.387,3.543,3.543,0,0,1,1.173.879,6.315,6.315,0,0,1,1.055,1.766,4.536,4.536,0,0,1,.255,1.6v1.019a5.1,5.1,0,0,1-.5,2.2,4.661,4.661,0,0,1-1.67,1.854,3.542,3.542,0,0,1-2.013.58h-3.972a.551.551,0,0,1-.378-.1.365.365,0,0,1,0-.532.568.568,0,0,1,.378-.1Zm.738,0h2.681a2.858,2.858,0,0,0,1.744-.607,3.924,3.924,0,0,0,1.222-1.454,3.842,3.842,0,0,0,.409-1.674v-1.336a3.208,3.208,0,0,0-.22-1.222,5.65,5.65,0,0,0-.9-1.485,2.93,2.93,0,0,0-.931-.708,2.839,2.839,0,0,0-1.327-.321h-2.681Z" fill="#333e48"/>
    <path d="M185.563,213.35v3.85h1.362a.585.585,0,0,1,.387.1.367.367,0,0,1,0,.532.567.567,0,0,1-.387.1h-3.094a.551.551,0,0,1-.378-.1.367.367,0,0,1,0-.532.568.568,0,0,1,.378-.1h.993v-8.807h-.993a.563.563,0,0,1-.378-.1.371.371,0,0,1,0-.535.562.562,0,0,1,.378-.1H188.3a3.3,3.3,0,0,1,2.325.875,2.634,2.634,0,0,1,.945,1.973,2.287,2.287,0,0,1-.585,1.49,4.323,4.323,0,0,1-1.955,1.164,6.517,6.517,0,0,1,1.353,1.23,25.369,25.369,0,0,1,1.8,2.813h.562a.568.568,0,0,1,.378.1.365.365,0,0,1,0,.532.551.551,0,0,1-.378.1h-.984a20.493,20.493,0,0,0-2.123-3.287,5.488,5.488,0,0,0-1.727-1.3Zm0-.738h2.012a4.244,4.244,0,0,0,1.754-.352,2.83,2.83,0,0,0,1.142-.826,1.592,1.592,0,0,0,.356-.967,1.907,1.907,0,0,0-.742-1.406,2.608,2.608,0,0,0-1.807-.668h-2.715Z" fill="#333e48"/>
  </g>
  <g>
    <path d="M169,233.2v-.246a.568.568,0,0,1,.1-.378.372.372,0,0,1,.536,0,.563.563,0,0,1,.1.378v1.881a.566.566,0,0,1-.1.378.371.371,0,0,1-.527.008.513.513,0,0,1-.11-.342,1.851,1.851,0,0,0-.76-1.327,3.3,3.3,0,0,0-3.819.039,1.909,1.909,0,0,0-.721,1.481,1.614,1.614,0,0,0,.2.8,1.684,1.684,0,0,0,.537.584,2.98,2.98,0,0,0,.755.361,10.007,10.007,0,0,0,1.319.285,9.589,9.589,0,0,1,2.074.5,2.454,2.454,0,0,1,1.547,2.382,2.776,2.776,0,0,1-1.011,2.158,3.969,3.969,0,0,1-2.725.892,4.057,4.057,0,0,1-3.076-1.2v.422a.566.566,0,0,1-.1.378.339.339,0,0,1-.268.114.343.343,0,0,1-.263-.114.549.549,0,0,1-.106-.378v-2.039a.585.585,0,0,1,.1-.387.372.372,0,0,1,.527-.009.511.511,0,0,1,.11.343,2.047,2.047,0,0,0,.866,1.473,3.419,3.419,0,0,0,2.21.663,3.243,3.243,0,0,0,2.193-.695,2.106,2.106,0,0,0,.805-1.643,1.79,1.79,0,0,0-.308-1.032,2.056,2.056,0,0,0-.914-.717,9.185,9.185,0,0,0-1.758-.413,5.991,5.991,0,0,1-2.645-.941,2.154,2.154,0,0,1-.809-1.8,2.6,2.6,0,0,1,.927-2,3.522,3.522,0,0,1,2.448-.835A3.914,3.914,0,0,1,169,233.2Z" fill="#333e48"/>
    <path d="M177.529,233.2v8.807h1.916a.568.568,0,0,1,.378.1.364.364,0,0,1,0,.531.546.546,0,0,1-.378.106h-4.579a.549.549,0,0,1-.378-.106.366.366,0,0,1,0-.531.572.572,0,0,1,.378-.1h1.916V233.2h-3.023v2.558a.584.584,0,0,1-.1.386.365.365,0,0,1-.532,0,.566.566,0,0,1-.105-.386v-3.3h8.27v3.3a.584.584,0,0,1-.1.386.37.37,0,0,1-.536,0,.584.584,0,0,1-.1-.386V233.2Z" fill="#333e48"/>
    <path d="M185.563,238.155v3.85h1.362a.585.585,0,0,1,.387.1.366.366,0,0,1,0,.531.562.562,0,0,1-.387.106h-3.094a.546.546,0,0,1-.378-.106.366.366,0,0,1,0-.531.568.568,0,0,1,.378-.1h.993V233.2h-.993a.557.557,0,0,1-.378-.1.337.337,0,0,1-.114-.267.341.341,0,0,1,.114-.268.568.568,0,0,1,.378-.1H188.3a3.3,3.3,0,0,1,2.325.875,2.633,2.633,0,0,1,.945,1.972,2.288,2.288,0,0,1-.585,1.491,4.331,4.331,0,0,1-1.955,1.164,6.517,6.517,0,0,1,1.353,1.23,25.369,25.369,0,0,1,1.8,2.813h.562a.568.568,0,0,1,.378.1.364.364,0,0,1,0,.531.546.546,0,0,1-.378.106h-.984a20.446,20.446,0,0,0-2.123-3.287,5.488,5.488,0,0,0-1.727-1.3Zm0-.738h2.012a4.244,4.244,0,0,0,1.754-.352,2.84,2.84,0,0,0,1.142-.826,1.6,1.6,0,0,0,.356-.967,1.905,1.905,0,0,0-.742-1.406,2.608,2.608,0,0,0-1.807-.668h-2.715Z" fill="#333e48"/>
  </g>
  <rect x="127.559" y="196.685" width="99.213" height="56.693" fill="none" stroke="#333e48" stroke-miterlimit="10" stroke-dasharray="5 3"/>
  <g>
    <path d="M420.538,83.3h-1.71a.8.8,0,0,1-.747-.406l-3.195-4.481a.945.945,0,0,0-.333-.32,1.2,1.2,0,0,0-.54-.094h-1.251v5.3h-1.917V70.375h3.726a7.97,7.97,0,0,1,2.156.256,4.174,4.174,0,0,1,1.493.729,2.893,2.893,0,0,1,.873,1.139,3.776,3.776,0,0,1,.284,1.494,3.823,3.823,0,0,1-.207,1.268,3.319,3.319,0,0,1-.607,1.067,3.808,3.808,0,0,1-.977.814,4.758,4.758,0,0,1-1.305.523,1.963,1.963,0,0,1,.621.6Zm-6.03-6.7a4.275,4.275,0,0,0,1.3-.179,2.654,2.654,0,0,0,.94-.509,2.087,2.087,0,0,0,.567-.783,2.586,2.586,0,0,0,.189-1,2,2,0,0,0-.733-1.683,3.563,3.563,0,0,0-2.2-.567h-1.809V76.6Z" fill="#333e48"/>
    <path d="M428.746,81.994a3.453,3.453,0,0,1-.747.652,4.387,4.387,0,0,1-.9.446,5.379,5.379,0,0,1-.986.251,6.359,6.359,0,0,1-1,.082,4.7,4.7,0,0,1-1.75-.32,3.882,3.882,0,0,1-1.4-.936,4.241,4.241,0,0,1-.918-1.53,6.166,6.166,0,0,1-.329-2.1,5.2,5.2,0,0,1,.3-1.778,4.274,4.274,0,0,1,.85-1.435,3.92,3.92,0,0,1,1.355-.963,4.44,4.44,0,0,1,1.8-.352,4.233,4.233,0,0,1,1.544.275,3.436,3.436,0,0,1,1.219.8,3.692,3.692,0,0,1,.806,1.287,4.886,4.886,0,0,1,.292,1.746,1.114,1.114,0,0,1-.09.544.366.366,0,0,1-.333.14h-5.994a4.942,4.942,0,0,0,.234,1.426,2.892,2.892,0,0,0,.572,1.013,2.261,2.261,0,0,0,.868.6,3.074,3.074,0,0,0,1.125.2,3.386,3.386,0,0,0,1.013-.135,4.936,4.936,0,0,0,.737-.293,5.534,5.534,0,0,0,.522-.293.722.722,0,0,1,.374-.135.389.389,0,0,1,.333.162ZM427.3,77.71a3,3,0,0,0-.148-.963,2.217,2.217,0,0,0-.437-.766,1.984,1.984,0,0,0-.7-.5,2.374,2.374,0,0,0-.954-.179,2.341,2.341,0,0,0-1.741.638,3.091,3.091,0,0,0-.806,1.774Z" fill="#333e48"/>
    <path d="M438.565,74.5v.657q0,.324-.4.4l-.981.145a3.136,3.136,0,0,1,.2.589,2.885,2.885,0,0,1,.072.653,2.732,2.732,0,0,1-.981,2.15,3.226,3.226,0,0,1-1.093.594,4.436,4.436,0,0,1-1.391.207,4.776,4.776,0,0,1-1.161-.135,1.364,1.364,0,0,0-.409.356.649.649,0,0,0-.14.383.5.5,0,0,0,.266.467,2,2,0,0,0,.693.221,8.031,8.031,0,0,0,.981.085c.369.013.744.032,1.125.059a9.937,9.937,0,0,1,1.125.144,3.373,3.373,0,0,1,.981.333,1.9,1.9,0,0,1,.693.63,1.847,1.847,0,0,1,.265,1.039,2.455,2.455,0,0,1-.292,1.153,3.039,3.039,0,0,1-.851.99,4.451,4.451,0,0,1-1.359.692,5.857,5.857,0,0,1-1.818.262,7.035,7.035,0,0,1-1.768-.2,4.156,4.156,0,0,1-1.251-.532,2.273,2.273,0,0,1-.747-.773,1.857,1.857,0,0,1-.248-.918,1.636,1.636,0,0,1,.414-1.13,2.729,2.729,0,0,1,1.143-.724,1.608,1.608,0,0,1-.63-.491,1.334,1.334,0,0,1-.234-.824,1.265,1.265,0,0,1,.072-.409,1.686,1.686,0,0,1,.221-.423,2.179,2.179,0,0,1,.369-.4,2.7,2.7,0,0,1,.508-.342,2.874,2.874,0,0,1-1.062-1,2.721,2.721,0,0,1-.387-1.462,2.7,2.7,0,0,1,.986-2.143,3.255,3.255,0,0,1,1.107-.593A4.575,4.575,0,0,1,433.984,74a4.01,4.01,0,0,1,2.043.5Zm-1.782,9.278a.728.728,0,0,0-.18-.517,1.224,1.224,0,0,0-.49-.306,3.282,3.282,0,0,0-.725-.162c-.276-.032-.566-.059-.868-.076s-.614-.035-.932-.05-.624-.043-.918-.085a2.59,2.59,0,0,0-.769.566,1.133,1.133,0,0,0-.3.783,1.044,1.044,0,0,0,.149.54,1.267,1.267,0,0,0,.459.437,2.64,2.64,0,0,0,.783.288,5.34,5.34,0,0,0,1.129.1,5.19,5.19,0,0,0,1.143-.113,2.84,2.84,0,0,0,.833-.315,1.5,1.5,0,0,0,.513-.482A1.122,1.122,0,0,0,436.783,83.775Zm-2.8-5.04a2.444,2.444,0,0,0,.824-.126,1.625,1.625,0,0,0,.594-.355,1.474,1.474,0,0,0,.36-.553,2.014,2.014,0,0,0,.121-.711,1.692,1.692,0,0,0-.481-1.265,2.351,2.351,0,0,0-2.826,0,1.693,1.693,0,0,0-.482,1.265,1.97,1.97,0,0,0,.122.706,1.482,1.482,0,0,0,.36.549,1.676,1.676,0,0,0,.594.36A2.353,2.353,0,0,0,433.984,78.735Z" fill="#333e48"/>
    <path d="M447.772,74.155V83.3h-1.053a.451.451,0,0,1-.468-.351l-.126-.918a6.185,6.185,0,0,1-.621.575,3.787,3.787,0,0,1-1.476.734,3.666,3.666,0,0,1-.891.1,3.267,3.267,0,0,1-1.328-.252,2.633,2.633,0,0,1-.958-.706,3.054,3.054,0,0,1-.585-1.094,4.749,4.749,0,0,1-.2-1.413V74.155h1.764v5.822a2.33,2.33,0,0,0,.45,1.526,1.684,1.684,0,0,0,1.377.545,2.591,2.591,0,0,0,1.26-.32,4.3,4.3,0,0,0,1.1-.878V74.155Z" fill="#333e48"/>
    <path d="M452.029,70.014V83.3h-1.764V70.014Z" fill="#333e48"/>
    <path d="M454.3,75.432a5.02,5.02,0,0,1,3.626-1.449,3.523,3.523,0,0,1,1.387.257,2.836,2.836,0,0,1,1.016.716,3.041,3.041,0,0,1,.626,1.1,4.483,4.483,0,0,1,.212,1.414V83.3h-.783a.741.741,0,0,1-.4-.086.582.582,0,0,1-.216-.32l-.189-.8a7.723,7.723,0,0,1-.694.572,4.433,4.433,0,0,1-.715.423,3.614,3.614,0,0,1-.8.265,4.452,4.452,0,0,1-.936.09,3.358,3.358,0,0,1-1.013-.148,2.271,2.271,0,0,1-.823-.454,2.146,2.146,0,0,1-.554-.765,2.637,2.637,0,0,1-.2-1.071,2.029,2.029,0,0,1,.293-1.04,2.646,2.646,0,0,1,.954-.9,6.135,6.135,0,0,1,1.728-.647,12.913,12.913,0,0,1,2.623-.288v-.666a2.323,2.323,0,0,0-.44-1.548,1.617,1.617,0,0,0-1.3-.513,2.822,2.822,0,0,0-.968.144,3.666,3.666,0,0,0-.675.319q-.284.175-.5.319a.762.762,0,0,1-.437.145.492.492,0,0,1-.31-.1.824.824,0,0,1-.212-.233Zm5.147,3.808a13.24,13.24,0,0,0-1.817.166,4.964,4.964,0,0,0-1.216.347,1.647,1.647,0,0,0-.675.508,1.1,1.1,0,0,0-.207.653,1.416,1.416,0,0,0,.113.589,1.1,1.1,0,0,0,.306.405,1.209,1.209,0,0,0,.454.229,2.126,2.126,0,0,0,.567.073,3.241,3.241,0,0,0,.743-.081,2.933,2.933,0,0,0,.634-.23,3.216,3.216,0,0,0,.568-.364,5.263,5.263,0,0,0,.53-.495Z" fill="#333e48"/>
    <path d="M465.178,75.91A4.174,4.174,0,0,1,466.24,74.5a2.41,2.41,0,0,1,2.056-.446,1.452,1.452,0,0,1,.464.2l-.117,1.323a.285.285,0,0,1-.3.243,2.16,2.16,0,0,1-.378-.05,2.807,2.807,0,0,0-.54-.05,2.12,2.12,0,0,0-.747.122,1.747,1.747,0,0,0-.581.36,2.425,2.425,0,0,0-.454.585,5.864,5.864,0,0,0-.369.788V83.3h-1.755V74.155h1.008a.556.556,0,0,1,.391.1.674.674,0,0,1,.148.365Z" fill="#333e48"/>
    <path d="M474.051,75.432a5.024,5.024,0,0,1,3.627-1.449,3.523,3.523,0,0,1,1.387.257,2.845,2.845,0,0,1,1.016.716,3.041,3.041,0,0,1,.626,1.1,4.483,4.483,0,0,1,.212,1.414V83.3h-.784a.746.746,0,0,1-.4-.086.586.586,0,0,1-.215-.32l-.189-.8a7.723,7.723,0,0,1-.694.572,4.433,4.433,0,0,1-.715.423,3.614,3.614,0,0,1-.8.265,4.452,4.452,0,0,1-.936.09,3.358,3.358,0,0,1-1.013-.148,2.263,2.263,0,0,1-.823-.454,2.146,2.146,0,0,1-.554-.765A2.637,2.637,0,0,1,473.6,81a2.029,2.029,0,0,1,.293-1.04,2.646,2.646,0,0,1,.954-.9,6.135,6.135,0,0,1,1.728-.647,12.913,12.913,0,0,1,2.623-.288v-.666a2.323,2.323,0,0,0-.441-1.548,1.613,1.613,0,0,0-1.295-.513,2.822,2.822,0,0,0-.968.144,3.666,3.666,0,0,0-.675.319q-.284.175-.5.319a.762.762,0,0,1-.437.145.492.492,0,0,1-.31-.1.824.824,0,0,1-.212-.233ZM479.2,79.24a13.24,13.24,0,0,0-1.817.166,4.951,4.951,0,0,0-1.216.347,1.647,1.647,0,0,0-.675.508,1.1,1.1,0,0,0-.207.653,1.416,1.416,0,0,0,.113.589,1.1,1.1,0,0,0,.306.405,1.209,1.209,0,0,0,.454.229,2.126,2.126,0,0,0,.567.073,3.241,3.241,0,0,0,.743-.081,2.953,2.953,0,0,0,.634-.23,3.291,3.291,0,0,0,.568-.364,5.263,5.263,0,0,0,.53-.495Z" fill="#333e48"/>
    <path d="M489.684,75.865a1.054,1.054,0,0,1-.157.157.359.359,0,0,1-.221.059.523.523,0,0,1-.3-.113,3.969,3.969,0,0,0-.4-.243,3.592,3.592,0,0,0-.577-.243,3.01,3.01,0,0,0-1.975.121,2.2,2.2,0,0,0-.823.666,3.051,3.051,0,0,0-.5,1.054,5.254,5.254,0,0,0-.171,1.394,5.164,5.164,0,0,0,.18,1.427,3.08,3.08,0,0,0,.513,1.053,2.17,2.17,0,0,0,.81.648,2.5,2.5,0,0,0,1.062.22,2.678,2.678,0,0,0,.936-.139,3.115,3.115,0,0,0,.612-.3,4.35,4.35,0,0,0,.405-.3.509.509,0,0,1,.333-.14.389.389,0,0,1,.333.162l.5.649a3.387,3.387,0,0,1-.706.656,4.032,4.032,0,0,1-.833.442,4.627,4.627,0,0,1-.922.251,5.892,5.892,0,0,1-.977.082,4.054,4.054,0,0,1-1.6-.316,3.625,3.625,0,0,1-1.286-.918,4.383,4.383,0,0,1-.86-1.48,5.876,5.876,0,0,1-.315-1.994,6,6,0,0,1,.284-1.88,4.18,4.18,0,0,1,.837-1.49,3.867,3.867,0,0,1,1.363-.981,4.572,4.572,0,0,1,1.854-.356,4.417,4.417,0,0,1,1.728.316,4.221,4.221,0,0,1,1.332.891Z" fill="#333e48"/>
    <path d="M498.135,75.865a1.054,1.054,0,0,1-.157.157.359.359,0,0,1-.221.059.523.523,0,0,1-.3-.113,3.969,3.969,0,0,0-.4-.243,3.54,3.54,0,0,0-.576-.243,3.013,3.013,0,0,0-1.976.121,2.2,2.2,0,0,0-.823.666,3.051,3.051,0,0,0-.5,1.054,5.254,5.254,0,0,0-.171,1.394,5.164,5.164,0,0,0,.18,1.427,3.08,3.08,0,0,0,.513,1.053,2.17,2.17,0,0,0,.81.648,2.5,2.5,0,0,0,1.062.22,2.678,2.678,0,0,0,.936-.139,3.115,3.115,0,0,0,.612-.3,4.35,4.35,0,0,0,.4-.3.509.509,0,0,1,.333-.14.389.389,0,0,1,.333.162l.5.649a3.387,3.387,0,0,1-.706.656,4.032,4.032,0,0,1-.833.442,4.627,4.627,0,0,1-.922.251,5.883,5.883,0,0,1-.977.082,4.046,4.046,0,0,1-1.6-.316,3.619,3.619,0,0,1-1.287-.918,4.383,4.383,0,0,1-.86-1.48,5.876,5.876,0,0,1-.315-1.994,6,6,0,0,1,.284-1.88,4.18,4.18,0,0,1,.837-1.49,3.867,3.867,0,0,1,1.363-.981,4.572,4.572,0,0,1,1.854-.356,4.417,4.417,0,0,1,1.728.316,4.221,4.221,0,0,1,1.332.891Z" fill="#333e48"/>
    <path d="M507.684,81.994a3.453,3.453,0,0,1-.747.652,4.387,4.387,0,0,1-.9.446,5.379,5.379,0,0,1-.986.251,6.359,6.359,0,0,1-1,.082,4.7,4.7,0,0,1-1.75-.32,3.9,3.9,0,0,1-1.4-.936,4.253,4.253,0,0,1-.917-1.53,6.166,6.166,0,0,1-.329-2.1,5.2,5.2,0,0,1,.3-1.778,4.274,4.274,0,0,1,.85-1.435,3.92,3.92,0,0,1,1.355-.963,4.44,4.44,0,0,1,1.8-.352,4.233,4.233,0,0,1,1.544.275,3.436,3.436,0,0,1,1.219.8,3.692,3.692,0,0,1,.806,1.287,4.886,4.886,0,0,1,.292,1.746,1.114,1.114,0,0,1-.09.544.366.366,0,0,1-.333.14H501.4a4.942,4.942,0,0,0,.234,1.426,2.892,2.892,0,0,0,.572,1.013,2.261,2.261,0,0,0,.868.6,3.074,3.074,0,0,0,1.125.2,3.386,3.386,0,0,0,1.013-.135,4.936,4.936,0,0,0,.737-.293,5.534,5.534,0,0,0,.522-.293.722.722,0,0,1,.374-.135.389.389,0,0,1,.333.162Zm-1.449-4.284a3,3,0,0,0-.148-.963,2.217,2.217,0,0,0-.437-.766,1.984,1.984,0,0,0-.7-.5,2.374,2.374,0,0,0-.954-.179,2.341,2.341,0,0,0-1.741.638,3.091,3.091,0,0,0-.806,1.774Z" fill="#333e48"/>
    <path d="M515.1,75.729a.5.5,0,0,1-.153.167.392.392,0,0,1-.207.05.655.655,0,0,1-.32-.1q-.175-.1-.423-.215a3.861,3.861,0,0,0-.58-.216,2.765,2.765,0,0,0-.792-.1,2.361,2.361,0,0,0-.689.095,1.629,1.629,0,0,0-.526.261,1.154,1.154,0,0,0-.333.4,1.063,1.063,0,0,0-.117.49.818.818,0,0,0,.2.568,1.735,1.735,0,0,0,.531.386,5.061,5.061,0,0,0,.747.293q.418.131.855.275t.855.328a3.119,3.119,0,0,1,.747.459,2.164,2.164,0,0,1,.531.661,2.021,2.021,0,0,1,.2.945,3.019,3.019,0,0,1-.23,1.184,2.579,2.579,0,0,1-.675.94,3.159,3.159,0,0,1-1.1.621,4.6,4.6,0,0,1-1.5.225,4.729,4.729,0,0,1-1.746-.314,4.382,4.382,0,0,1-1.341-.8l.414-.676a.483.483,0,0,1,.468-.261.616.616,0,0,1,.351.126q.18.126.432.275a3.241,3.241,0,0,0,.612.27,2.847,2.847,0,0,0,.9.121,2.452,2.452,0,0,0,.783-.112,1.615,1.615,0,0,0,.553-.306,1.233,1.233,0,0,0,.329-.446,1.329,1.329,0,0,0,.108-.53.894.894,0,0,0-.2-.6,1.721,1.721,0,0,0-.531-.409,4.336,4.336,0,0,0-.751-.3c-.283-.084-.57-.174-.864-.269a8.755,8.755,0,0,1-.864-.333,2.956,2.956,0,0,1-.752-.478,2.212,2.212,0,0,1-.531-.7,2.28,2.28,0,0,1-.2-1.009,2.44,2.44,0,0,1,.22-1.017,2.516,2.516,0,0,1,.639-.854,3.166,3.166,0,0,1,1.035-.59,4.172,4.172,0,0,1,1.409-.221,4.442,4.442,0,0,1,1.642.289,3.766,3.766,0,0,1,1.256.792Z" fill="#333e48"/>
    <path d="M522.921,75.729a.493.493,0,0,1-.153.167.392.392,0,0,1-.207.05.658.658,0,0,1-.32-.1q-.174-.1-.422-.215a3.917,3.917,0,0,0-.581-.216,2.76,2.76,0,0,0-.792-.1,2.366,2.366,0,0,0-.689.095,1.629,1.629,0,0,0-.526.261,1.165,1.165,0,0,0-.333.4,1.063,1.063,0,0,0-.117.49.814.814,0,0,0,.2.568,1.73,1.73,0,0,0,.53.386,5.15,5.15,0,0,0,.747.293c.28.087.564.179.855.275s.577.205.855.328a3.08,3.08,0,0,1,.747.459,2.167,2.167,0,0,1,.532.661,2.034,2.034,0,0,1,.2.945,3,3,0,0,1-.23,1.184,2.589,2.589,0,0,1-.674.94,3.164,3.164,0,0,1-1.1.621,4.6,4.6,0,0,1-1.5.225,4.729,4.729,0,0,1-1.746-.314,4.394,4.394,0,0,1-1.341-.8l.414-.676a.483.483,0,0,1,.468-.261.614.614,0,0,1,.351.126q.18.126.432.275a3.27,3.27,0,0,0,.612.27,2.851,2.851,0,0,0,.9.121,2.452,2.452,0,0,0,.783-.112,1.606,1.606,0,0,0,.553-.306,1.233,1.233,0,0,0,.329-.446,1.329,1.329,0,0,0,.108-.53.9.9,0,0,0-.2-.6,1.726,1.726,0,0,0-.532-.409,4.336,4.336,0,0,0-.751-.3q-.423-.126-.864-.269a8.852,8.852,0,0,1-.864-.333,2.991,2.991,0,0,1-.752-.478,2.195,2.195,0,0,1-.53-.7,2.266,2.266,0,0,1-.2-1.009,2.44,2.44,0,0,1,.22-1.017,2.529,2.529,0,0,1,.639-.854,3.171,3.171,0,0,1,1.036-.59,4.162,4.162,0,0,1,1.408-.221,4.435,4.435,0,0,1,1.642.289,3.756,3.756,0,0,1,1.256.792Z" fill="#333e48"/>
    <path d="M532.857,81.994a3.453,3.453,0,0,1-.747.652,4.387,4.387,0,0,1-.9.446,5.379,5.379,0,0,1-.986.251,6.368,6.368,0,0,1-1,.082,4.708,4.708,0,0,1-1.751-.32,3.891,3.891,0,0,1-1.395-.936,4.269,4.269,0,0,1-.918-1.53,6.192,6.192,0,0,1-.328-2.1,5.2,5.2,0,0,1,.3-1.778,4.274,4.274,0,0,1,.85-1.435,3.91,3.91,0,0,1,1.355-.963,4.44,4.44,0,0,1,1.8-.352,4.224,4.224,0,0,1,1.543.275,3.431,3.431,0,0,1,1.22.8,3.676,3.676,0,0,1,.8,1.287,4.864,4.864,0,0,1,.293,1.746,1.114,1.114,0,0,1-.09.544.366.366,0,0,1-.333.14h-5.994a4.942,4.942,0,0,0,.234,1.426,2.877,2.877,0,0,0,.572,1.013,2.261,2.261,0,0,0,.868.6,3.074,3.074,0,0,0,1.125.2,3.374,3.374,0,0,0,1.012-.135,4.908,4.908,0,0,0,.738-.293,5.534,5.534,0,0,0,.522-.293.722.722,0,0,1,.374-.135.389.389,0,0,1,.333.162Zm-1.449-4.284a2.973,2.973,0,0,0-.149-.963,2.2,2.2,0,0,0-.436-.766,1.984,1.984,0,0,0-.7-.5,2.374,2.374,0,0,0-.954-.179,2.344,2.344,0,0,0-1.742.638,3.1,3.1,0,0,0-.8,1.774Z" fill="#333e48"/>
    <path d="M540.273,75.729a.514.514,0,0,1-.153.167.392.392,0,0,1-.207.05.655.655,0,0,1-.32-.1q-.175-.1-.423-.215a3.861,3.861,0,0,0-.58-.216,2.765,2.765,0,0,0-.792-.1,2.361,2.361,0,0,0-.689.095,1.629,1.629,0,0,0-.526.261,1.154,1.154,0,0,0-.333.4,1.064,1.064,0,0,0-.118.49.819.819,0,0,0,.2.568,1.735,1.735,0,0,0,.531.386,5.061,5.061,0,0,0,.747.293q.418.131.855.275t.855.328a3.119,3.119,0,0,1,.747.459,2.164,2.164,0,0,1,.531.661,2.021,2.021,0,0,1,.2.945,3.018,3.018,0,0,1-.229,1.184,2.579,2.579,0,0,1-.675.94,3.159,3.159,0,0,1-1.1.621,4.6,4.6,0,0,1-1.5.225,4.729,4.729,0,0,1-1.746-.314,4.382,4.382,0,0,1-1.341-.8l.414-.676a.548.548,0,0,1,.179-.193.542.542,0,0,1,.289-.068.618.618,0,0,1,.351.126q.18.126.432.275a3.241,3.241,0,0,0,.612.27,2.844,2.844,0,0,0,.9.121,2.458,2.458,0,0,0,.784-.112,1.615,1.615,0,0,0,.553-.306,1.219,1.219,0,0,0,.328-.446,1.312,1.312,0,0,0,.108-.53.894.894,0,0,0-.2-.6,1.721,1.721,0,0,0-.531-.409,4.336,4.336,0,0,0-.751-.3c-.283-.084-.57-.174-.864-.269a8.755,8.755,0,0,1-.864-.333,2.956,2.956,0,0,1-.752-.478,2.212,2.212,0,0,1-.531-.7,2.28,2.28,0,0,1-.2-1.009,2.44,2.44,0,0,1,.22-1.017,2.516,2.516,0,0,1,.639-.854,3.166,3.166,0,0,1,1.035-.59,4.17,4.17,0,0,1,1.408-.221,4.444,4.444,0,0,1,1.643.289,3.766,3.766,0,0,1,1.256.792Z" fill="#333e48"/>
    <path d="M547.013,75.432a5.024,5.024,0,0,1,3.627-1.449,3.523,3.523,0,0,1,1.387.257,2.845,2.845,0,0,1,1.016.716,3.041,3.041,0,0,1,.626,1.1,4.483,4.483,0,0,1,.212,1.414V83.3H553.1a.746.746,0,0,1-.4-.086.581.581,0,0,1-.215-.32l-.189-.8a7.723,7.723,0,0,1-.694.572,4.433,4.433,0,0,1-.715.423,3.6,3.6,0,0,1-.8.265,4.439,4.439,0,0,1-.936.09,3.356,3.356,0,0,1-1.012-.148,2.275,2.275,0,0,1-.824-.454,2.156,2.156,0,0,1-.553-.765,2.637,2.637,0,0,1-.2-1.071,2.029,2.029,0,0,1,.293-1.04,2.646,2.646,0,0,1,.954-.9,6.135,6.135,0,0,1,1.728-.647,12.913,12.913,0,0,1,2.623-.288v-.666a2.323,2.323,0,0,0-.441-1.548,1.615,1.615,0,0,0-1.3-.513,2.82,2.82,0,0,0-.967.144,3.666,3.666,0,0,0-.675.319q-.284.175-.5.319a.762.762,0,0,1-.437.145.492.492,0,0,1-.31-.1.81.81,0,0,1-.212-.233Zm5.148,3.808a13.241,13.241,0,0,0-1.818.166,4.955,4.955,0,0,0-1.215.347,1.64,1.64,0,0,0-.675.508,1.1,1.1,0,0,0-.207.653,1.416,1.416,0,0,0,.113.589,1.1,1.1,0,0,0,.306.405,1.209,1.209,0,0,0,.454.229,2.126,2.126,0,0,0,.567.073,3.241,3.241,0,0,0,.743-.081,2.953,2.953,0,0,0,.634-.23,3.291,3.291,0,0,0,.568-.364,5.373,5.373,0,0,0,.53-.495Z" fill="#333e48"/>
    <path d="M557.885,75.424a6.208,6.208,0,0,1,.621-.577,3.961,3.961,0,0,1,.688-.445,3.7,3.7,0,0,1,.784-.288,3.767,3.767,0,0,1,.9-.1,3.262,3.262,0,0,1,1.327.252,2.63,2.63,0,0,1,.959.707,3.058,3.058,0,0,1,.585,1.093,4.768,4.768,0,0,1,.2,1.413V83.3h-1.764V77.475a2.33,2.33,0,0,0-.45-1.525,1.683,1.683,0,0,0-1.377-.544,2.611,2.611,0,0,0-1.264.319,4.212,4.212,0,0,0-1.094.868V83.3h-1.755V74.155h1.053a.428.428,0,0,1,.459.351Z" fill="#333e48"/>
    <path d="M573.968,70.014V83.3h-1.062a.429.429,0,0,1-.459-.351l-.153-1.054a4.848,4.848,0,0,1-1.327,1.112,3.431,3.431,0,0,1-1.715.419,3.233,3.233,0,0,1-1.417-.306,2.987,2.987,0,0,1-1.085-.9,4.276,4.276,0,0,1-.693-1.463,7.5,7.5,0,0,1-.243-2.006,6.367,6.367,0,0,1,.27-1.89,4.553,4.553,0,0,1,.783-1.513,3.7,3.7,0,0,1,1.243-1,3.627,3.627,0,0,1,1.647-.365,3.093,3.093,0,0,1,2.447,1.035v-5ZM572.2,76.369a2.473,2.473,0,0,0-.931-.792,2.682,2.682,0,0,0-1.121-.226,2.21,2.21,0,0,0-1.867.869,4.13,4.13,0,0,0-.662,2.534,6.441,6.441,0,0,0,.149,1.489,2.84,2.84,0,0,0,.432,1.008,1.711,1.711,0,0,0,.7.576,2.269,2.269,0,0,0,.936.184,2.489,2.489,0,0,0,1.322-.341,4,4,0,0,0,1.044-.963Z" fill="#333e48"/>
    <path d="M413.374,95.353v8.807h4.9v-2.936a.554.554,0,0,1,.106-.378.377.377,0,0,1,.536,0,.55.55,0,0,1,.106.382V104.9h-8.157a.554.554,0,0,1-.378-.1.347.347,0,0,1-.114-.264.342.342,0,0,1,.114-.268.572.572,0,0,1,.378-.1h1.758V95.353h-1.758a.566.566,0,0,1-.378-.1.371.371,0,0,1,0-.535.566.566,0,0,1,.378-.1h4.263a.562.562,0,0,1,.378.1.371.371,0,0,1,0,.535.563.563,0,0,1-.378.1Z" fill="#333e48"/>
    <path d="M422.559,104.16V95.353h-.624a.563.563,0,0,1-.378-.1.371.371,0,0,1,0-.535.562.562,0,0,1,.378-.1h3.972a3.732,3.732,0,0,1,1.7.387,3.529,3.529,0,0,1,1.173.879,6.315,6.315,0,0,1,1.055,1.766,4.536,4.536,0,0,1,.255,1.6v1.019a5.1,5.1,0,0,1-.5,2.2,4.661,4.661,0,0,1-1.67,1.854,3.542,3.542,0,0,1-2.013.58h-3.972a.551.551,0,0,1-.378-.1.347.347,0,0,1-.114-.264.342.342,0,0,1,.114-.268.568.568,0,0,1,.378-.1Zm.738,0h2.681a2.858,2.858,0,0,0,1.744-.607,3.924,3.924,0,0,0,1.222-1.454,3.842,3.842,0,0,0,.409-1.674V99.089a3.208,3.208,0,0,0-.22-1.222,5.65,5.65,0,0,0-.9-1.485,2.93,2.93,0,0,0-.931-.708,2.839,2.839,0,0,0-1.327-.321H423.3Z" fill="#333e48"/>
    <path d="M438.687,101.462h-4.852l-.993,2.7h1.415a.568.568,0,0,1,.378.1.342.342,0,0,1,.114.268.347.347,0,0,1-.114.264.551.551,0,0,1-.378.1H431.5a.551.551,0,0,1-.378-.1.347.347,0,0,1-.114-.264.342.342,0,0,1,.114-.268.568.568,0,0,1,.378-.1h.572l3.26-8.807H433.15a.563.563,0,0,1-.378-.1.369.369,0,0,1,0-.535.562.562,0,0,1,.378-.1h3.717l3.6,9.545h.571a.568.568,0,0,1,.378.1.342.342,0,0,1,.114.268.347.347,0,0,1-.114.264.551.551,0,0,1-.378.1h-2.751a.571.571,0,0,1-.387-.1.347.347,0,0,1-.114-.264.342.342,0,0,1,.114-.268.589.589,0,0,1,.387-.1H439.7Zm-.282-.739-2.039-5.37h-.272l-1.978,5.37Z" fill="#333e48"/>
    <path d="M445.454,100.679v3.481h2.532a.567.567,0,0,1,.377.1.339.339,0,0,1,.115.268.344.344,0,0,1-.115.264.55.55,0,0,1-.377.1h-4.263a.551.551,0,0,1-.378-.1.347.347,0,0,1-.114-.264.342.342,0,0,1,.114-.268.568.568,0,0,1,.378-.1h.993V95.353h-.993a.563.563,0,0,1-.378-.1.371.371,0,0,1,0-.535.562.562,0,0,1,.378-.1h4.289a3.5,3.5,0,0,1,2.483.9,2.788,2.788,0,0,1,.962,2.1,2.631,2.631,0,0,1-.312,1.283,2.7,2.7,0,0,1-.751.9,4.71,4.71,0,0,1-1.363.72,4.086,4.086,0,0,1-1.265.167Zm0-.738h2.356a3.318,3.318,0,0,0,1.533-.365,2.538,2.538,0,0,0,1.046-.892,2,2,0,0,0,.33-1.072,2.092,2.092,0,0,0-.747-1.564,2.667,2.667,0,0,0-1.89-.7h-2.628Z" fill="#333e48"/>
    <path d="M455.456,100.31v3.85h1.363a.584.584,0,0,1,.386.1.342.342,0,0,1,.114.268.347.347,0,0,1-.114.264.566.566,0,0,1-.386.1h-3.094a.551.551,0,0,1-.378-.1.347.347,0,0,1-.114-.264.342.342,0,0,1,.114-.268.568.568,0,0,1,.378-.1h.993V95.353h-.993a.563.563,0,0,1-.378-.1.371.371,0,0,1,0-.535.562.562,0,0,1,.378-.1h4.465a3.293,3.293,0,0,1,2.324.875,2.634,2.634,0,0,1,.945,1.973,2.291,2.291,0,0,1-.584,1.49,4.327,4.327,0,0,1-1.956,1.164,6.523,6.523,0,0,1,1.354,1.23,25.408,25.408,0,0,1,1.8,2.813h.563a.568.568,0,0,1,.378.1.342.342,0,0,1,.114.268.347.347,0,0,1-.114.264.551.551,0,0,1-.378.1h-.985a20.508,20.508,0,0,0-2.122-3.287,5.5,5.5,0,0,0-1.727-1.3Zm0-.738h2.013a4.239,4.239,0,0,0,1.753-.352,2.827,2.827,0,0,0,1.143-.826,1.6,1.6,0,0,0,.356-.967,1.909,1.909,0,0,0-.743-1.406,2.606,2.606,0,0,0-1.806-.668h-2.716Z" fill="#333e48"/>
    <path d="M475.447,97.465a1.011,1.011,0,0,1-.158.157.356.356,0,0,1-.22.058.531.531,0,0,1-.3-.112,3.969,3.969,0,0,0-.4-.243,3.54,3.54,0,0,0-.576-.243,2.993,2.993,0,0,0-1.975.121,2.2,2.2,0,0,0-.824.666,3.059,3.059,0,0,0-.5,1.054,5.248,5.248,0,0,0-.171,1.394,5.169,5.169,0,0,0,.18,1.427,3.089,3.089,0,0,0,.513,1.053,2.17,2.17,0,0,0,.81.648,2.5,2.5,0,0,0,1.062.22,2.678,2.678,0,0,0,.936-.139,3.113,3.113,0,0,0,.612-.3,4.358,4.358,0,0,0,.4-.3.509.509,0,0,1,.333-.14.389.389,0,0,1,.333.162l.5.648a3.372,3.372,0,0,1-.707.657,4,4,0,0,1-.832.441,4.707,4.707,0,0,1-.923.252,5.87,5.87,0,0,1-.976.081,4.05,4.05,0,0,1-1.6-.315,3.616,3.616,0,0,1-1.286-.918,4.381,4.381,0,0,1-.86-1.481,5.875,5.875,0,0,1-.315-1.993,6,6,0,0,1,.283-1.881,4.184,4.184,0,0,1,.837-1.489A3.88,3.88,0,0,1,471,95.966a4.556,4.556,0,0,1,1.854-.356,4.436,4.436,0,0,1,1.728.315,4.221,4.221,0,0,1,1.332.891Z" fill="#333e48"/>
    <path d="M477.418,97.032a5.02,5.02,0,0,1,3.627-1.449,3.518,3.518,0,0,1,1.386.257,2.825,2.825,0,0,1,1.016.715,3.045,3.045,0,0,1,.626,1.1,4.477,4.477,0,0,1,.212,1.413V104.9H483.5a.732.732,0,0,1-.4-.086.584.584,0,0,1-.216-.319l-.189-.8a7.568,7.568,0,0,1-.694.571,4.361,4.361,0,0,1-.715.423,3.669,3.669,0,0,1-.8.266,4.506,4.506,0,0,1-.936.09,3.326,3.326,0,0,1-1.013-.149,2.256,2.256,0,0,1-.823-.454,2.142,2.142,0,0,1-.554-.764,2.642,2.642,0,0,1-.2-1.072,2.031,2.031,0,0,1,.293-1.04,2.635,2.635,0,0,1,.954-.895,6.133,6.133,0,0,1,1.728-.648,12.987,12.987,0,0,1,2.624-.288v-.666a2.327,2.327,0,0,0-.441-1.548,1.615,1.615,0,0,0-1.3-.512,2.824,2.824,0,0,0-.968.143,3.732,3.732,0,0,0-.675.319c-.189.118-.354.224-.5.32a.767.767,0,0,1-.436.144.5.5,0,0,1-.311-.1.823.823,0,0,1-.211-.234Zm5.148,3.808a13.241,13.241,0,0,0-1.818.166,4.968,4.968,0,0,0-1.216.346,1.646,1.646,0,0,0-.674.509,1.093,1.093,0,0,0-.207.652,1.413,1.413,0,0,0,.112.589,1.1,1.1,0,0,0,.306.406,1.221,1.221,0,0,0,.455.229,2.113,2.113,0,0,0,.566.072,3.18,3.18,0,0,0,.743-.081,2.931,2.931,0,0,0,.634-.229,3.166,3.166,0,0,0,.568-.365,5.049,5.049,0,0,0,.531-.5Z" fill="#333e48"/>
    <path d="M488.289,97.023a6.2,6.2,0,0,1,.621-.576A3.911,3.911,0,0,1,489.6,96a3.673,3.673,0,0,1,1.678-.392,3.267,3.267,0,0,1,1.328.252,2.624,2.624,0,0,1,.958.707,3.058,3.058,0,0,1,.585,1.093,4.763,4.763,0,0,1,.2,1.413V104.9h-1.764V99.075a2.33,2.33,0,0,0-.45-1.525,1.679,1.679,0,0,0-1.376-.544,2.612,2.612,0,0,0-1.265.319,4.212,4.212,0,0,0-1.094.868v6.7h-1.755V95.755H487.7a.428.428,0,0,1,.459.35Z" fill="#333e48"/>
    <path d="M507.666,97.465a1.011,1.011,0,0,1-.158.157.354.354,0,0,1-.22.058.531.531,0,0,1-.3-.112,3.75,3.75,0,0,0-.4-.243,3.54,3.54,0,0,0-.576-.243,2.993,2.993,0,0,0-1.975.121,2.21,2.21,0,0,0-.824.666,3.059,3.059,0,0,0-.5,1.054,5.248,5.248,0,0,0-.171,1.394,5.169,5.169,0,0,0,.18,1.427,3.089,3.089,0,0,0,.513,1.053,2.17,2.17,0,0,0,.81.648,2.5,2.5,0,0,0,1.062.22,2.678,2.678,0,0,0,.936-.139,3.113,3.113,0,0,0,.612-.3,4.358,4.358,0,0,0,.4-.3.509.509,0,0,1,.333-.14.389.389,0,0,1,.333.162l.5.648a3.392,3.392,0,0,1-.706.657,4.028,4.028,0,0,1-.833.441,4.716,4.716,0,0,1-.922.252,5.891,5.891,0,0,1-.977.081,4.054,4.054,0,0,1-1.6-.315,3.625,3.625,0,0,1-1.286-.918,4.4,4.4,0,0,1-.86-1.481,5.875,5.875,0,0,1-.315-1.993,6,6,0,0,1,.284-1.881,4.169,4.169,0,0,1,.837-1.489,3.867,3.867,0,0,1,1.363-.981,4.556,4.556,0,0,1,1.854-.356,4.436,4.436,0,0,1,1.728.315,4.221,4.221,0,0,1,1.332.891Z" fill="#333e48"/>
    <path d="M511.527,97.509a4.184,4.184,0,0,1,1.062-1.413,2.275,2.275,0,0,1,1.494-.513,2.225,2.225,0,0,1,.562.068,1.451,1.451,0,0,1,.464.2l-.117,1.323a.285.285,0,0,1-.3.244,2.171,2.171,0,0,1-.378-.05,2.8,2.8,0,0,0-.54-.05,2.12,2.12,0,0,0-.747.122,1.728,1.728,0,0,0-.581.359,2.49,2.49,0,0,0-.454.585,5.938,5.938,0,0,0-.369.789V104.9h-1.755V95.755h1.008a.556.556,0,0,1,.391.1.678.678,0,0,1,.149.364Z" fill="#333e48"/>
    <path d="M520.023,95.61a4.835,4.835,0,0,1,1.822.328,3.812,3.812,0,0,1,1.386.945,4.241,4.241,0,0,1,.878,1.486,6.369,6.369,0,0,1,0,3.9,4.188,4.188,0,0,1-.878,1.486,3.85,3.85,0,0,1-1.386.94,5.252,5.252,0,0,1-3.654,0,3.892,3.892,0,0,1-1.39-.94,4.191,4.191,0,0,1-.887-1.486,6.291,6.291,0,0,1,0-3.9,4.244,4.244,0,0,1,.887-1.486,3.853,3.853,0,0,1,1.39-.945A4.862,4.862,0,0,1,520.023,95.61Zm0,8.046a2.242,2.242,0,0,0,1.935-.873,5.051,5.051,0,0,0,0-4.918,2.238,2.238,0,0,0-1.935-.878,2.269,2.269,0,0,0-1.958.878,5.023,5.023,0,0,0,0,4.918A2.274,2.274,0,0,0,520.023,103.656Z" fill="#333e48"/>
    <path d="M531.758,97.329a.5.5,0,0,1-.152.167.394.394,0,0,1-.207.05.663.663,0,0,1-.32-.1c-.117-.065-.258-.138-.423-.216a4.062,4.062,0,0,0-.581-.216,2.793,2.793,0,0,0-.792-.1,2.389,2.389,0,0,0-.688.094,1.67,1.67,0,0,0-.526.261,1.146,1.146,0,0,0-.333.4,1.051,1.051,0,0,0-.118.49.816.816,0,0,0,.2.567,1.72,1.72,0,0,0,.531.387,5.174,5.174,0,0,0,.747.293c.279.087.564.179.855.274s.576.2.855.329a3.119,3.119,0,0,1,.747.459,2.152,2.152,0,0,1,.531.661,2.018,2.018,0,0,1,.2.945,3.022,3.022,0,0,1-.229,1.184,2.588,2.588,0,0,1-.675.94,3.164,3.164,0,0,1-1.1.621,4.63,4.63,0,0,1-1.5.225,4.737,4.737,0,0,1-1.746-.315,4.356,4.356,0,0,1-1.34-.8l.414-.675a.476.476,0,0,1,.467-.261.614.614,0,0,1,.351.126c.121.084.265.176.433.274a3.194,3.194,0,0,0,.611.271,2.851,2.851,0,0,0,.9.121,2.447,2.447,0,0,0,.783-.112,1.627,1.627,0,0,0,.554-.306,1.219,1.219,0,0,0,.328-.446,1.313,1.313,0,0,0,.108-.531.891.891,0,0,0-.2-.6,1.721,1.721,0,0,0-.531-.409,4.239,4.239,0,0,0-.752-.3c-.282-.084-.569-.174-.863-.27a8.621,8.621,0,0,1-.865-.333,2.964,2.964,0,0,1-.751-.477,2.216,2.216,0,0,1-.531-.7,2.278,2.278,0,0,1-.2-1.008,2.435,2.435,0,0,1,.221-1.017,2.516,2.516,0,0,1,.639-.854,3.148,3.148,0,0,1,1.035-.59,4.141,4.141,0,0,1,1.408-.221,4.464,4.464,0,0,1,1.643.288,3.782,3.782,0,0,1,1.256.792Z" fill="#333e48"/>
    <path d="M539.579,97.329a.493.493,0,0,1-.153.167.392.392,0,0,1-.207.05.663.663,0,0,1-.319-.1c-.117-.065-.258-.138-.423-.216a4.108,4.108,0,0,0-.581-.216,2.8,2.8,0,0,0-.792-.1,2.389,2.389,0,0,0-.688.094,1.676,1.676,0,0,0-.527.261,1.168,1.168,0,0,0-.333.4,1.063,1.063,0,0,0-.117.49.816.816,0,0,0,.2.567,1.72,1.72,0,0,0,.531.387,5.174,5.174,0,0,0,.747.293c.279.087.564.179.855.274s.576.2.855.329a3.119,3.119,0,0,1,.747.459,2.152,2.152,0,0,1,.531.661,2.018,2.018,0,0,1,.2.945,3.022,3.022,0,0,1-.229,1.184,2.588,2.588,0,0,1-.675.94,3.164,3.164,0,0,1-1.1.621,4.63,4.63,0,0,1-1.5.225,4.73,4.73,0,0,1-1.746-.315,4.374,4.374,0,0,1-1.341-.8l.414-.675a.545.545,0,0,1,.18-.194.539.539,0,0,1,.288-.067.614.614,0,0,1,.351.126c.12.084.264.176.432.274a3.2,3.2,0,0,0,.612.271,2.851,2.851,0,0,0,.9.121,2.452,2.452,0,0,0,.783-.112,1.627,1.627,0,0,0,.554-.306,1.242,1.242,0,0,0,.328-.446,1.33,1.33,0,0,0,.108-.531.891.891,0,0,0-.2-.6,1.721,1.721,0,0,0-.531-.409,4.3,4.3,0,0,0-.752-.3q-.423-.126-.864-.27a8.6,8.6,0,0,1-.864-.333A2.964,2.964,0,0,1,534.5,100a2.2,2.2,0,0,1-.531-.7,2.278,2.278,0,0,1-.2-1.008,2.435,2.435,0,0,1,.221-1.017,2.5,2.5,0,0,1,.639-.854,3.148,3.148,0,0,1,1.035-.59,4.137,4.137,0,0,1,1.408-.221,4.464,4.464,0,0,1,1.643.288,3.777,3.777,0,0,1,1.255.792Z" fill="#333e48"/>
    <path d="M549.416,105.042a2.261,2.261,0,0,1-1.705-.62,2.45,2.45,0,0,1-.6-1.774V97.176H546.05a.367.367,0,0,1-.256-.094.362.362,0,0,1-.1-.283v-.711l1.485-.207.4-2.728a.415.415,0,0,1,.14-.238.4.4,0,0,1,.265-.086h.891V95.9h2.592v1.278h-2.592v5.355a1.1,1.1,0,0,0,.265.806.925.925,0,0,0,.68.265,1.248,1.248,0,0,0,.419-.063,1.7,1.7,0,0,0,.3-.139c.084-.052.156-.1.216-.14a.292.292,0,0,1,.162-.063.213.213,0,0,1,.139.041.485.485,0,0,1,.1.13l.522.847a3.046,3.046,0,0,1-1.026.611A3.58,3.58,0,0,1,549.416,105.042Z" fill="#333e48"/>
    <path d="M554.824,96.915a5.043,5.043,0,0,1,1.274-.945,3.453,3.453,0,0,1,1.607-.36,3.262,3.262,0,0,1,1.327.252,2.615,2.615,0,0,1,.958.707,3.027,3.027,0,0,1,.585,1.093,4.73,4.73,0,0,1,.2,1.413V104.9h-1.765V99.075a2.33,2.33,0,0,0-.449-1.525,1.683,1.683,0,0,0-1.377-.544,2.615,2.615,0,0,0-1.265.319,4.212,4.212,0,0,0-1.094.868v6.7h-1.755V91.614h1.755Z" fill="#333e48"/>
    <path d="M570.647,103.593a3.485,3.485,0,0,1-.747.653,4.383,4.383,0,0,1-.9.445,5.463,5.463,0,0,1-.986.252,6.366,6.366,0,0,1-1,.081,4.712,4.712,0,0,1-1.751-.319,3.893,3.893,0,0,1-1.395-.937,4.265,4.265,0,0,1-.918-1.529,6.2,6.2,0,0,1-.328-2.1,5.2,5.2,0,0,1,.3-1.777,4.265,4.265,0,0,1,.85-1.435,3.9,3.9,0,0,1,1.355-.963,4.424,4.424,0,0,1,1.8-.352,4.254,4.254,0,0,1,1.544.274,3.463,3.463,0,0,1,1.219.8,3.694,3.694,0,0,1,.805,1.287,4.866,4.866,0,0,1,.293,1.747,1.106,1.106,0,0,1-.09.543.366.366,0,0,1-.333.14h-5.994a4.943,4.943,0,0,0,.234,1.427,2.886,2.886,0,0,0,.572,1.013,2.27,2.27,0,0,0,.868.6,3.054,3.054,0,0,0,1.125.2,3.409,3.409,0,0,0,1.012-.134,5.016,5.016,0,0,0,.738-.293c.207-.105.382-.2.522-.293a.722.722,0,0,1,.374-.135.389.389,0,0,1,.333.162ZM569.2,99.309a2.978,2.978,0,0,0-.149-.963,2.195,2.195,0,0,0-.436-.765,1.984,1.984,0,0,0-.7-.5,2.373,2.373,0,0,0-.954-.18,2.345,2.345,0,0,0-1.742.639,3.094,3.094,0,0,0-.805,1.773Z" fill="#333e48"/>
    <path d="M417.294,116.954v-.246a.568.568,0,0,1,.1-.378.372.372,0,0,1,.536,0,.563.563,0,0,1,.1.378v1.881a.566.566,0,0,1-.1.378.371.371,0,0,1-.527.008.513.513,0,0,1-.11-.342,1.855,1.855,0,0,0-.76-1.328,3.306,3.306,0,0,0-3.819.039,1.915,1.915,0,0,0-.721,1.482,1.617,1.617,0,0,0,.2.8,1.684,1.684,0,0,0,.537.584,2.98,2.98,0,0,0,.755.361,10.007,10.007,0,0,0,1.319.285,9.589,9.589,0,0,1,2.074.5,2.454,2.454,0,0,1,1.547,2.382,2.777,2.777,0,0,1-1.011,2.158,3.968,3.968,0,0,1-2.724.892,4.061,4.061,0,0,1-3.077-1.2v.422a.562.562,0,0,1-.1.377.337.337,0,0,1-.268.115.341.341,0,0,1-.263-.115.544.544,0,0,1-.106-.377v-2.04a.584.584,0,0,1,.1-.386.342.342,0,0,1,.268-.114.346.346,0,0,1,.26.105.511.511,0,0,1,.109.343,2.043,2.043,0,0,0,.866,1.472,3.414,3.414,0,0,0,2.211.663,3.241,3.241,0,0,0,2.192-.694,2.107,2.107,0,0,0,.805-1.643,1.8,1.8,0,0,0-.308-1.033,2.061,2.061,0,0,0-.914-.716,9.241,9.241,0,0,0-1.758-.414,6,6,0,0,1-2.645-.94,2.154,2.154,0,0,1-.809-1.8,2.6,2.6,0,0,1,.927-2,3.522,3.522,0,0,1,2.448-.835A3.909,3.909,0,0,1,417.294,116.954Z" fill="#333e48"/>
    <path d="M425.819,116.954v8.806h1.917a.567.567,0,0,1,.377.1.337.337,0,0,1,.115.268.341.341,0,0,1-.115.263.544.544,0,0,1-.377.106h-4.58a.549.549,0,0,1-.378-.106.343.343,0,0,1-.114-.263.339.339,0,0,1,.114-.268.572.572,0,0,1,.378-.1h1.916v-8.806h-3.023v2.557a.585.585,0,0,1-.1.387.367.367,0,0,1-.532,0,.567.567,0,0,1-.105-.387v-3.3h8.27v3.3a.58.58,0,0,1-.1.387.372.372,0,0,1-.536,0,.585.585,0,0,1-.1-.387v-2.557Z" fill="#333e48"/>
    <path d="M434.978,116.954v8.806h4.9v-2.935a.551.551,0,0,1,.105-.378.379.379,0,0,1,.537-.005.552.552,0,0,1,.105.383V126.5h-8.156a.546.546,0,0,1-.378-.106.343.343,0,0,1-.114-.263.339.339,0,0,1,.114-.268.568.568,0,0,1,.378-.1h1.758v-8.806h-1.758a.557.557,0,0,1-.378-.1.371.371,0,0,1,0-.535.568.568,0,0,1,.378-.1h4.263a.567.567,0,0,1,.377.1.369.369,0,0,1,0,.535.556.556,0,0,1-.377.1Z" fill="#333e48"/>
    <path d="M444.654,121.911v3.849h1.363a.584.584,0,0,1,.386.1.337.337,0,0,1,.115.268.341.341,0,0,1-.115.263.56.56,0,0,1-.386.106h-3.094a.546.546,0,0,1-.378-.106.343.343,0,0,1-.114-.263.339.339,0,0,1,.114-.268.568.568,0,0,1,.378-.1h.993v-8.806h-.993a.557.557,0,0,1-.378-.1.371.371,0,0,1,0-.535.568.568,0,0,1,.378-.1h4.465a3.3,3.3,0,0,1,2.325.875,2.636,2.636,0,0,1,.944,1.972,2.282,2.282,0,0,1-.584,1.49,4.318,4.318,0,0,1-1.956,1.164,6.529,6.529,0,0,1,1.354,1.231,25.477,25.477,0,0,1,1.8,2.812h.562a.568.568,0,0,1,.378.1.339.339,0,0,1,.114.268.343.343,0,0,1-.114.263.546.546,0,0,1-.378.106h-.984a20.446,20.446,0,0,0-2.123-3.287,5.473,5.473,0,0,0-1.727-1.3Zm0-.738h2.013a4.26,4.26,0,0,0,1.754-.352,2.84,2.84,0,0,0,1.142-.826,1.6,1.6,0,0,0,.356-.967,1.9,1.9,0,0,0-.743-1.406,2.6,2.6,0,0,0-1.806-.668h-2.716Z" fill="#333e48"/>
    <path d="M459.992,118.615a4.77,4.77,0,0,1,1.287-1.018,3.416,3.416,0,0,1,1.638-.386,3.279,3.279,0,0,1,1.444.31,3.035,3.035,0,0,1,1.094.891,4.218,4.218,0,0,1,.693,1.409,6.647,6.647,0,0,1,.243,1.872,6.961,6.961,0,0,1-.275,2.016,4.672,4.672,0,0,1-.782,1.556,3.514,3.514,0,0,1-1.238,1,3.675,3.675,0,0,1-1.638.356,3.588,3.588,0,0,1-.81-.086,2.757,2.757,0,0,1-1.251-.643,4.208,4.208,0,0,1-.5-.531l-.081.765a.413.413,0,0,1-.45.369h-1.134V113.215h1.755Zm0,5.634a2.471,2.471,0,0,0,.936.792,2.662,2.662,0,0,0,1.1.224,2.227,2.227,0,0,0,1.886-.873,4.341,4.341,0,0,0,.661-2.636,3.93,3.93,0,0,0-.585-2.39,1.967,1.967,0,0,0-1.656-.76,2.431,2.431,0,0,0-1.309.342,3.824,3.824,0,0,0-1.031.972Z" fill="#333e48"/>
    <path d="M468.119,118.633a5.026,5.026,0,0,1,3.627-1.45,3.514,3.514,0,0,1,1.386.257,2.84,2.84,0,0,1,1.017.716,3.058,3.058,0,0,1,.625,1.1,4.472,4.472,0,0,1,.212,1.413V126.5H474.2a.744.744,0,0,1-.4-.086.587.587,0,0,1-.216-.32l-.189-.8a7.728,7.728,0,0,1-.693.571,4.37,4.37,0,0,1-.716.423,3.6,3.6,0,0,1-.8.265,4.439,4.439,0,0,1-.936.09,3.362,3.362,0,0,1-1.013-.148,2.271,2.271,0,0,1-.823-.454,2.162,2.162,0,0,1-.554-.765,2.637,2.637,0,0,1-.2-1.071,2.027,2.027,0,0,1,.292-1.04,2.646,2.646,0,0,1,.954-.9,6.165,6.165,0,0,1,1.728-.647,12.923,12.923,0,0,1,2.624-.288v-.666a2.325,2.325,0,0,0-.441-1.548,1.615,1.615,0,0,0-1.3-.513,2.826,2.826,0,0,0-.968.144,3.666,3.666,0,0,0-.675.319c-.189.117-.354.224-.5.319a.759.759,0,0,1-.436.145.5.5,0,0,1-.311-.1.806.806,0,0,1-.211-.233Zm5.148,3.807a13.4,13.4,0,0,0-1.818.166,4.955,4.955,0,0,0-1.215.347,1.633,1.633,0,0,0-.675.509,1.1,1.1,0,0,0-.207.652,1.4,1.4,0,0,0,.113.589,1.077,1.077,0,0,0,.305.405,1.208,1.208,0,0,0,.455.23,2.168,2.168,0,0,0,.567.072,3.177,3.177,0,0,0,.742-.081,2.961,2.961,0,0,0,.635-.23,3.133,3.133,0,0,0,.567-.364,5.158,5.158,0,0,0,.531-.5Z" fill="#333e48"/>
    <path d="M479,119.11a4.174,4.174,0,0,1,1.062-1.413,2.271,2.271,0,0,1,1.494-.514,2.219,2.219,0,0,1,.562.069,1.441,1.441,0,0,1,.464.2l-.117,1.323a.285.285,0,0,1-.3.243,2.077,2.077,0,0,1-.378-.05,2.8,2.8,0,0,0-.54-.049,2.12,2.12,0,0,0-.747.122,1.714,1.714,0,0,0-.58.359,2.473,2.473,0,0,0-.455.585,5.864,5.864,0,0,0-.369.788V126.5h-1.755v-9.144h1.008a.55.55,0,0,1,.391.1.674.674,0,0,1,.149.364Z" fill="#333e48"/>
    <path d="M485.6,119.11a4.174,4.174,0,0,1,1.062-1.413,2.268,2.268,0,0,1,1.493-.514,2.227,2.227,0,0,1,.563.069,1.451,1.451,0,0,1,.464.2l-.117,1.323a.285.285,0,0,1-.3.243,2.066,2.066,0,0,1-.378-.05,2.809,2.809,0,0,0-.54-.049,2.12,2.12,0,0,0-.747.122,1.718,1.718,0,0,0-.581.359,2.444,2.444,0,0,0-.454.585,5.988,5.988,0,0,0-.37.788V126.5h-1.754v-9.144h1.008a.55.55,0,0,1,.391.1.667.667,0,0,1,.148.364Z" fill="#333e48"/>
    <path d="M492.706,114.529a1.132,1.132,0,0,1-.1.463,1.326,1.326,0,0,1-.266.388,1.226,1.226,0,0,1-.392.26,1.2,1.2,0,0,1-.467.095,1.126,1.126,0,0,1-.459-.095,1.255,1.255,0,0,1-.383-.26,1.239,1.239,0,0,1-.261-.388,1.163,1.163,0,0,1-.095-.463,1.193,1.193,0,0,1,.095-.473,1.208,1.208,0,0,1,.261-.386,1.226,1.226,0,0,1,.383-.262,1.125,1.125,0,0,1,.459-.094,1.221,1.221,0,0,1,.859.356,1.291,1.291,0,0,1,.266.386A1.161,1.161,0,0,1,492.706,114.529Zm-.333,2.826V126.5h-1.755v-9.144Z" fill="#333e48"/>
    <path d="M502.426,125.194a3.453,3.453,0,0,1-.747.652,4.387,4.387,0,0,1-.9.446,5.474,5.474,0,0,1-.985.252,6.5,6.5,0,0,1-1,.081,4.7,4.7,0,0,1-1.75-.32,3.891,3.891,0,0,1-1.4-.936,4.25,4.25,0,0,1-.918-1.529,6.176,6.176,0,0,1-.329-2.1,5.194,5.194,0,0,1,.3-1.777,4.255,4.255,0,0,1,.851-1.436,3.919,3.919,0,0,1,1.354-.963,4.44,4.44,0,0,1,1.8-.351,4.229,4.229,0,0,1,1.544.274,3.44,3.44,0,0,1,1.219.8,3.7,3.7,0,0,1,.806,1.287,4.864,4.864,0,0,1,.292,1.746,1.111,1.111,0,0,1-.09.544.366.366,0,0,1-.333.14h-5.994a4.936,4.936,0,0,0,.234,1.426,2.883,2.883,0,0,0,.572,1.013,2.269,2.269,0,0,0,.868.6,3.054,3.054,0,0,0,1.125.2,3.381,3.381,0,0,0,1.013-.135,5,5,0,0,0,.738-.293,5.5,5.5,0,0,0,.521-.293.725.725,0,0,1,.374-.135.387.387,0,0,1,.333.163Zm-1.449-4.284a3,3,0,0,0-.148-.963,2.2,2.2,0,0,0-.437-.766,2.009,2.009,0,0,0-.7-.5,2.374,2.374,0,0,0-.954-.179,2.346,2.346,0,0,0-1.741.638,3.091,3.091,0,0,0-.806,1.774Z" fill="#333e48"/>
    <path d="M506.108,119.11a4.174,4.174,0,0,1,1.062-1.413,2.268,2.268,0,0,1,1.493-.514,2.233,2.233,0,0,1,.563.069,1.461,1.461,0,0,1,.464.2l-.118,1.323a.285.285,0,0,1-.3.243,2.066,2.066,0,0,1-.378-.05,2.816,2.816,0,0,0-.54-.049,2.112,2.112,0,0,0-.747.122,1.718,1.718,0,0,0-.581.359,2.473,2.473,0,0,0-.455.585,5.99,5.99,0,0,0-.369.788V126.5h-1.755v-9.144h1.009a.55.55,0,0,1,.391.1.675.675,0,0,1,.148.364Z" fill="#333e48"/>
    <path d="M510.049,125.446a1.2,1.2,0,0,1,.338-.837,1.156,1.156,0,0,1,.841-.351,1.132,1.132,0,0,1,.459.094,1.223,1.223,0,0,1,.378.257,1.208,1.208,0,0,1,.256.378,1.133,1.133,0,0,1,.1.459,1.155,1.155,0,0,1-.1.468,1.244,1.244,0,0,1-.256.378,1.16,1.16,0,0,1-.378.252,1.2,1.2,0,0,1-.459.089,1.223,1.223,0,0,1-.468-.089,1.1,1.1,0,0,1-.373-.252,1.2,1.2,0,0,1-.338-.846Z" fill="#333e48"/>
  </g>
  <g>
    <line x1="344.518" y1="123.251" x2="396.076" y2="97.472" fill="none" stroke="#333e48" stroke-miterlimit="10"/>
    <polygon points="347.346 126.297 339.383 125.819 343.778 119.162 347.346 126.297" fill="#333e48"/>
  </g>
  <line x1="139.961" y1="125.819" x2="26.575" y2="125.819" fill="none" stroke="#333e48" stroke-miterlimit="10" stroke-dasharray="5 3"/>
</svg>